<svg width="181" height="181" viewBox="0 0 181 181" fill="none" xmlns="http://www.w3.org/2000/svg">
<g clip-path="url(#clip0)">
<path d="M90.3135 16.3846C114.357 16.3846 117.204 16.4901 126.66 16.9119C135.448 17.2985 140.193 18.7749 143.357 20.0052C147.54 21.6221 150.563 23.5906 153.691 26.719C156.855 29.8826 158.788 32.8705 160.405 37.0535C161.635 40.2171 163.111 44.9976 163.498 53.7503C163.92 63.2411 164.025 66.0883 164.025 90.0965C164.025 114.14 163.92 116.987 163.498 126.443C163.111 135.231 161.635 139.976 160.405 143.14C158.788 147.323 156.819 150.346 153.691 153.474C150.527 156.638 147.54 158.571 143.357 160.188C140.193 161.418 135.412 162.894 126.66 163.281C117.169 163.703 114.322 163.808 90.3135 163.808C66.2702 163.808 63.4229 163.703 53.9673 163.281C45.1795 162.894 40.4341 161.418 37.2705 160.188C33.0875 158.571 30.0645 156.602 26.9361 153.474C23.7725 150.31 21.8391 147.323 20.2222 143.14C18.9919 139.976 17.5156 135.195 17.1289 126.443C16.7071 116.952 16.6016 114.105 16.6016 90.0965C16.6016 66.0531 16.7071 63.2059 17.1289 53.7503C17.5156 44.9625 18.9919 40.2171 20.2222 37.0535C21.8391 32.8705 23.8076 29.8475 26.9361 26.719C30.0997 23.5554 33.0875 21.6221 37.2705 20.0052C40.4341 18.7749 45.2146 17.2985 53.9673 16.9119C63.4229 16.4901 66.2702 16.3846 90.3135 16.3846ZM90.3135 0.179955C65.8835 0.179955 62.8253 0.285408 53.2291 0.707221C43.668 1.12903 37.0947 2.67568 31.4002 4.8902C25.4597 7.21018 20.4331 10.2683 15.4416 15.2949C10.415 20.2864 7.35688 25.313 5.03691 31.2184C2.82239 36.948 1.27574 43.4861 0.853927 53.0472C0.432114 62.6786 0.32666 65.7368 0.32666 90.1668C0.32666 114.597 0.432114 117.655 0.853927 127.251C1.27574 136.812 2.82239 143.386 5.03691 149.08C7.35688 155.021 10.415 160.047 15.4416 165.039C20.4331 170.03 25.4597 173.123 31.3651 175.408C37.0947 177.623 43.6328 179.169 53.1939 179.591C62.7902 180.013 65.8483 180.119 90.2784 180.119C114.708 180.119 117.767 180.013 127.363 179.591C136.924 179.169 143.497 177.623 149.192 175.408C155.097 173.123 160.124 170.03 165.115 165.039C170.107 160.047 173.2 155.021 175.485 149.115C177.699 143.386 179.246 136.847 179.668 127.286C180.089 117.69 180.195 114.632 180.195 90.202C180.195 65.7719 180.089 62.7138 179.668 53.1175C179.246 43.5564 177.699 36.9832 175.485 31.2887C173.27 25.313 170.212 20.2864 165.185 15.2949C160.194 10.3035 155.167 7.21018 149.262 4.92536C143.532 2.71083 136.994 1.16419 127.433 0.742372C117.802 0.285408 114.744 0.179955 90.3135 0.179955Z" fill="white"/>
<path d="M90.3136 43.9438C64.7939 43.9438 44.0898 64.6478 44.0898 90.1675C44.0898 115.687 64.7939 136.391 90.3136 136.391C115.833 136.391 136.537 115.687 136.537 90.1675C136.537 64.6478 115.833 43.9438 90.3136 43.9438ZM90.3136 120.151C73.7574 120.151 60.3297 106.724 60.3297 90.1675C60.3297 73.6113 73.7574 60.1836 90.3136 60.1836C106.87 60.1836 120.297 73.6113 120.297 90.1675C120.297 106.724 106.87 120.151 90.3136 120.151Z" fill="white"/>
<path d="M149.156 42.1147C149.156 48.0904 144.306 52.9061 138.365 52.9061C132.389 52.9061 127.574 48.0552 127.574 42.1147C127.574 36.139 132.425 31.3233 138.365 31.3233C144.306 31.3233 149.156 36.1742 149.156 42.1147Z" fill="white"/>
</g>
<defs>
<clipPath id="clip0">
<rect width="179.974" height="179.974" fill="white" transform="translate(0.32666 0.179955)"/>
</clipPath>
</defs>
</svg>
