<svg width="173" height="181" viewBox="0 0 173 181" fill="none" xmlns="http://www.w3.org/2000/svg">
<path d="M159.72 0.179955H13.3267C6.31407 0.179955 0.643555 5.97989 0.643555 13.1507V167.148C0.643555 174.319 6.31407 180.154 13.3267 180.154H159.72C166.733 180.154 172.437 174.319 172.437 167.183V13.1507C172.437 5.97989 166.733 0.179955 159.72 0.179955ZM51.6111 153.544H26.1105V67.6349H51.6111V153.544ZM38.8608 55.9296C30.6738 55.9296 24.0638 49.0049 24.0638 40.4631C24.0638 31.9214 30.6738 24.9966 38.8608 24.9966C47.0143 24.9966 53.6243 31.9214 53.6243 40.4631C53.6243 48.9697 47.0143 55.9296 38.8608 55.9296ZM147.037 153.544H121.57V111.785C121.57 101.837 121.402 89.0068 108.316 89.0068C95.0626 89.0068 93.0494 99.8685 93.0494 111.082V153.544H67.616V67.6349H92.0428V79.3754H92.3784C95.7673 72.6264 104.089 65.4907 116.47 65.4907C142.272 65.4907 147.037 83.2772 147.037 106.407V153.544V153.544Z" fill="white"/>
</svg>
