<svg width="173" height="148" viewBox="0 0 173 148" fill="none" xmlns="http://www.w3.org/2000/svg">
<path d="M54.5468 147.793C119.358 147.793 154.818 91.1355 154.818 42.017C154.818 40.4242 154.784 38.796 154.717 37.2032C161.615 31.9408 167.568 25.4227 172.296 17.955C165.871 20.9702 159.051 22.9394 152.066 23.7953C159.42 19.1451 164.927 11.84 167.565 3.23398C160.646 7.55916 153.08 10.6102 145.191 12.2563C139.876 6.29816 132.847 2.35314 125.193 1.03121C117.539 -0.290716 109.685 1.08407 102.846 4.94301C96.0072 8.80195 90.5635 14.9301 87.3571 22.38C84.1506 29.83 83.3599 38.1867 85.1072 46.1583C71.0986 45.4167 57.3941 41.5778 44.8822 34.8906C32.3703 28.2033 21.3302 18.8169 12.4776 7.33987C7.9783 15.5232 6.6015 25.2067 8.62704 34.4223C10.6526 43.638 15.9285 51.6943 23.3825 56.9539C17.7865 56.7665 12.313 55.1771 7.41443 52.3171V52.7772C7.40942 61.365 10.2238 69.6896 15.3791 76.3359C20.5344 82.9822 27.7125 87.5401 35.6932 89.2347C30.5094 90.7309 25.0687 90.9489 19.7923 89.8718C22.0443 97.2574 26.4258 103.717 32.3255 108.349C38.2251 112.981 45.3485 115.555 52.7014 115.711C40.2183 126.055 24.7981 131.665 8.92433 131.639C6.10925 131.634 3.29694 131.452 0.502441 131.094C16.6285 142.007 35.3874 147.804 54.5468 147.793Z" fill="white"/>
</svg>
