<svg width="99" height="17" viewBox="0 0 99 17" fill="none" xmlns="http://www.w3.org/2000/svg">
<path d="M3.85287 10.7095V16.6937H0.0704346V0.517639H5.37479C6.55354 0.517639 7.55697 0.639764 8.38507 0.884014C9.22064 1.12086 9.89954 1.45393 10.4218 1.88322C10.9515 2.31251 11.3357 2.81951 11.5744 3.40423C11.8131 3.98895 11.9325 4.62548 11.9325 5.31382C11.9325 5.83933 11.8616 6.33523 11.7199 6.80153C11.5781 7.26783 11.3655 7.70081 11.082 8.1005C10.806 8.49278 10.4628 8.84435 10.0525 9.15521C9.64961 9.46608 9.18334 9.72143 8.65365 9.92127C8.9073 10.0471 9.14231 10.2025 9.35866 10.3876C9.58247 10.5726 9.77644 10.7984 9.94057 11.0648L13.4097 16.6937H9.98533C9.3512 16.6937 8.89611 16.4568 8.62008 15.9831L5.91194 11.2869C5.79258 11.0796 5.65083 10.9316 5.4867 10.8428C5.33003 10.7539 5.10622 10.7095 4.81526 10.7095H3.85287ZM3.85287 8.1227H5.37479C5.88956 8.1227 6.326 8.05979 6.6841 7.93396C7.04966 7.80073 7.34807 7.6194 7.57935 7.38995C7.81062 7.1605 7.97848 6.89405 8.08293 6.59059C8.18737 6.27972 8.23959 5.94665 8.23959 5.59138C8.23959 4.88084 8.00459 4.32572 7.53458 3.92604C7.07204 3.52636 6.35211 3.32652 5.37479 3.32652H3.85287V8.1227Z" fill="#020202"/>
<path d="M20.3711 5.00296C21.1395 5.00296 21.8408 5.12138 22.4749 5.35823C23.1165 5.59508 23.6649 5.93925 24.12 6.39075C24.5825 6.84224 24.9406 7.39735 25.1943 8.05609C25.4554 8.70742 25.5859 9.44757 25.5859 10.2765C25.5859 10.5356 25.5748 10.7465 25.5524 10.9094C25.53 11.0722 25.489 11.2017 25.4293 11.298C25.3696 11.3942 25.2875 11.4608 25.1831 11.4978C25.0861 11.5348 24.9593 11.5533 24.8026 11.5533H18.1106C18.2225 12.5155 18.5172 13.2149 18.9947 13.6516C19.4721 14.0809 20.0876 14.2956 20.8411 14.2956C21.244 14.2956 21.5909 14.2475 21.8818 14.1512C22.1728 14.055 22.4302 13.9477 22.654 13.8293C22.8853 13.7108 23.0942 13.6035 23.2807 13.5073C23.4746 13.4111 23.6761 13.363 23.885 13.363C24.161 13.363 24.3699 13.4629 24.5116 13.6627L25.5188 14.8951C25.1607 15.3022 24.7728 15.6352 24.355 15.8943C23.9447 16.1459 23.5194 16.3458 23.0792 16.4938C22.6465 16.6344 22.2101 16.7307 21.7699 16.7825C21.3372 16.8417 20.9232 16.8713 20.5278 16.8713C19.7146 16.8713 18.9499 16.7418 18.2337 16.4827C17.525 16.2163 16.902 15.824 16.3649 15.3059C15.8352 14.7878 15.4137 14.1438 15.1003 13.3741C14.7944 12.6043 14.6415 11.7087 14.6415 10.6873C14.6415 9.91757 14.7721 9.18852 15.0332 8.50018C15.3018 7.81184 15.6822 7.20861 16.1746 6.69051C16.6745 6.1724 17.275 5.76162 17.9763 5.45815C18.6851 5.15469 19.4833 5.00296 20.3711 5.00296ZM20.4383 7.37885C19.7743 7.37885 19.2558 7.56759 18.8828 7.94506C18.5097 8.31514 18.2635 8.85175 18.1442 9.5549H22.4749C22.4749 9.28104 22.4376 9.01458 22.363 8.75553C22.2959 8.49648 22.1803 8.26703 22.0161 8.06719C21.8595 7.85995 21.6506 7.69341 21.3895 7.56759C21.1283 7.44176 20.8113 7.37885 20.4383 7.37885Z" fill="#020202"/>
<path d="M28.0243 16.6937V5.1806H30.1729C30.3892 5.1806 30.5683 5.22871 30.71 5.32493C30.8592 5.42115 30.9637 5.56548 31.0234 5.75792L31.2248 6.42405C31.4486 6.21681 31.6799 6.02437 31.9186 5.84673C32.1573 5.6691 32.411 5.52107 32.6796 5.40264C32.9556 5.27682 33.2503 5.1806 33.5636 5.11398C33.8844 5.03997 34.2313 5.00296 34.6044 5.00296C35.2385 5.00296 35.798 5.11398 36.283 5.33603C36.7753 5.55067 37.1894 5.85414 37.5251 6.24642C37.8608 6.63129 38.1145 7.09389 38.2861 7.6342C38.4577 8.16711 38.5435 8.74813 38.5435 9.37726V16.6937H35.0744V9.37726C35.0744 8.81474 34.9438 8.37805 34.6827 8.06719C34.4216 7.74892 34.0374 7.58979 33.5301 7.58979C33.1496 7.58979 32.7915 7.67121 32.4558 7.83404C32.12 7.99688 31.7992 8.21522 31.4934 8.48908V16.6937H28.0243Z" fill="#020202"/>
<path d="M45.5282 16.8713C44.9761 16.8713 44.4874 16.7936 44.0622 16.6382C43.6444 16.4753 43.29 16.2496 42.9991 15.9609C42.7156 15.6649 42.4992 15.3096 42.35 14.8951C42.2008 14.4806 42.1262 14.018 42.1262 13.5073V7.55648H41.1414C40.9624 7.55648 40.8095 7.50097 40.6826 7.38995C40.5558 7.27153 40.4924 7.10129 40.4924 6.87925V5.53587L42.3388 5.1806L43.0215 2.37172C43.111 2.01645 43.3646 1.83881 43.7824 1.83881H45.5953V5.2028H48.4154V7.55648H45.5953V13.2742C45.5953 13.5406 45.6587 13.7627 45.7856 13.9403C45.9198 14.1105 46.1101 14.1956 46.3563 14.1956C46.4831 14.1956 46.5876 14.1845 46.6696 14.1623C46.7591 14.1327 46.8337 14.1031 46.8934 14.0735C46.9606 14.0365 47.0203 14.0069 47.0725 13.9847C47.1322 13.9551 47.1993 13.9403 47.2739 13.9403C47.3784 13.9403 47.4604 13.9662 47.5201 14.018C47.5872 14.0624 47.6544 14.1364 47.7215 14.2401L48.7735 15.8721C48.3258 16.2052 47.8223 16.4568 47.2627 16.627C46.7032 16.7899 46.125 16.8713 45.5282 16.8713Z" fill="#020202"/>
<path d="M50.8637 16.6937V0.517639H56.8618C57.9884 0.517639 58.947 0.62126 59.7378 0.828503C60.5286 1.03575 61.174 1.32811 61.6738 1.70558C62.1736 2.08306 62.5355 2.54195 62.7593 3.08227C62.9906 3.62258 63.1062 4.2258 63.1062 4.89194C63.1062 5.25461 63.054 5.60618 62.9495 5.94665C62.8451 6.27972 62.681 6.59429 62.4571 6.89035C62.2333 7.18641 61.9461 7.45656 61.5955 7.70081C61.2448 7.93766 60.8233 8.14491 60.3309 8.32254C61.4052 8.5816 62.1998 9.00348 62.7145 9.5882C63.2293 10.1655 63.4867 10.9094 63.4867 11.8198C63.4867 12.5081 63.3524 13.1483 63.0838 13.7405C62.8152 14.3326 62.4198 14.8507 61.8976 15.2948C61.3828 15.7315 60.745 16.0756 59.984 16.3273C59.2231 16.5715 58.3539 16.6937 57.3766 16.6937H50.8637ZM54.6461 9.83245V13.8626H57.3095C57.8093 13.8626 58.2159 13.7997 58.5292 13.6738C58.85 13.548 59.1 13.3852 59.279 13.1853C59.4581 12.9855 59.5812 12.7598 59.6483 12.5081C59.7154 12.2564 59.749 12.0011 59.749 11.742C59.749 11.446 59.708 11.1795 59.6259 10.9427C59.5513 10.7058 59.417 10.506 59.2231 10.3432C59.0365 10.1803 58.7866 10.0545 58.4733 9.96568C58.1599 9.87686 57.7645 9.83245 57.2871 9.83245H54.6461ZM54.6461 7.32334H56.6156C57.0334 7.32334 57.4102 7.29373 57.7459 7.23452C58.0816 7.17531 58.3651 7.07168 58.5964 6.92365C58.8351 6.77562 59.0142 6.57208 59.1335 6.31303C59.2604 6.05398 59.3238 5.72831 59.3238 5.33603C59.3238 4.95115 59.2753 4.63288 59.1783 4.38123C59.0813 4.12218 58.9321 3.91494 58.7307 3.7595C58.5292 3.60407 58.2719 3.49305 57.9585 3.42644C57.6526 3.35982 57.2871 3.32652 56.8618 3.32652H54.6461V7.32334Z" fill="#020202"/>
<path d="M74.0115 16.6937C73.6832 16.6937 73.4333 16.6493 73.2617 16.5604C73.0976 16.4716 72.9595 16.2866 72.8476 16.0053L72.6014 15.3725C72.3105 15.6167 72.0307 15.8314 71.7622 16.0164C71.4936 16.2015 71.2138 16.3606 70.9229 16.4938C70.6394 16.6196 70.3335 16.7122 70.0052 16.7714C69.6844 16.838 69.3263 16.8713 68.9309 16.8713C68.4012 16.8713 67.92 16.8047 67.4873 16.6715C67.0546 16.5308 66.6853 16.3273 66.3795 16.0608C66.081 15.7944 65.8498 15.465 65.6856 15.0727C65.5215 14.673 65.4394 14.2142 65.4394 13.696C65.4394 13.289 65.5439 12.8708 65.7528 12.4415C65.9617 12.0122 66.3235 11.6236 66.8383 11.2757C67.353 10.9205 68.0469 10.6244 68.9197 10.3876C69.7926 10.1507 70.893 10.0175 72.221 9.98788V9.49938C72.221 8.82585 72.0792 8.34105 71.7957 8.04498C71.5197 7.74152 71.1243 7.58979 70.6095 7.58979C70.1992 7.58979 69.8635 7.6342 69.6024 7.72302C69.3412 7.81184 69.1062 7.91176 68.8974 8.02278C68.6959 8.1338 68.4982 8.23372 68.3042 8.32254C68.1103 8.41136 67.879 8.45577 67.6104 8.45577C67.3717 8.45577 67.1665 8.40026 66.9949 8.28924C66.8308 8.17081 66.7003 8.02648 66.6033 7.85625L65.9766 6.77933C66.6779 6.165 67.4538 5.70981 68.3042 5.41374C69.1622 5.11028 70.0798 4.95855 71.0571 4.95855C71.7584 4.95855 72.3888 5.07327 72.9484 5.30272C73.5154 5.52477 73.9928 5.83933 74.3808 6.24642C74.7762 6.6461 75.0783 7.1235 75.2872 7.67861C75.4961 8.23372 75.6005 8.84065 75.6005 9.49938V16.6937H74.0115ZM70.0276 14.5953C70.4752 14.5953 70.8669 14.5176 71.2026 14.3622C71.5383 14.2068 71.8778 13.9551 72.221 13.6072V12.0085C71.5272 12.0381 70.9564 12.0973 70.5088 12.1861C70.0612 12.275 69.7068 12.386 69.4457 12.5192C69.1846 12.6524 69.0018 12.8042 68.8974 12.9744C68.8004 13.1446 68.7519 13.3297 68.7519 13.5295C68.7519 13.9218 68.86 14.1993 69.0764 14.3622C69.2928 14.5176 69.6098 14.5953 70.0276 14.5953Z" fill="#020202"/>
<path d="M85.6064 7.70081C85.5168 7.84144 85.4199 7.94136 85.3154 8.00058C85.2184 8.05979 85.0916 8.08939 84.9349 8.08939C84.7708 8.08939 84.6067 8.05609 84.4425 7.98947C84.2784 7.91546 84.0993 7.83774 83.9054 7.75633C83.7189 7.67491 83.5062 7.60089 83.2675 7.53428C83.0288 7.46027 82.7565 7.42326 82.4506 7.42326C82.0104 7.42326 81.671 7.50838 81.4323 7.67861C81.201 7.84144 81.0853 8.07089 81.0853 8.36695C81.0853 8.5816 81.16 8.75923 81.3092 8.89986C81.4658 9.04049 81.671 9.16632 81.9246 9.27734C82.1783 9.38096 82.4655 9.48088 82.7863 9.5771C83.1071 9.67332 83.4354 9.78064 83.7711 9.89907C84.1068 10.0175 84.4351 10.1581 84.7559 10.321C85.0767 10.4764 85.3639 10.6725 85.6176 10.9094C85.8712 11.1388 86.0726 11.4201 86.2218 11.7531C86.3785 12.0862 86.4569 12.4859 86.4569 12.9522C86.4569 13.5221 86.3524 14.0476 86.1435 14.5287C85.9346 15.0098 85.6213 15.4243 85.2035 15.7722C84.7932 16.12 84.2821 16.3902 83.6704 16.5826C83.0661 16.7751 82.3685 16.8713 81.5777 16.8713C81.1823 16.8713 80.7869 16.8343 80.3915 16.7603C79.9961 16.6863 79.6119 16.5863 79.2389 16.4605C78.8733 16.3347 78.5339 16.1867 78.2205 16.0164C77.9072 15.8388 77.6386 15.65 77.4148 15.4502L78.2205 14.1845C78.3175 14.0365 78.4332 13.9218 78.5675 13.8404C78.7017 13.7516 78.8771 13.7071 79.0934 13.7071C79.2948 13.7071 79.4739 13.7516 79.6306 13.8404C79.7947 13.9292 79.97 14.0254 80.1565 14.129C80.343 14.2327 80.5594 14.3289 80.8056 14.4177C81.0592 14.5065 81.3763 14.5509 81.7568 14.5509C82.0254 14.5509 82.2529 14.525 82.4394 14.4732C82.6259 14.414 82.7751 14.3363 82.887 14.2401C82.9989 14.1438 83.081 14.0365 83.1332 13.9181C83.1855 13.7997 83.2116 13.6775 83.2116 13.5517C83.2116 13.3223 83.1332 13.1335 82.9766 12.9855C82.8199 12.8375 82.6147 12.7116 82.3611 12.608C82.1074 12.497 81.8165 12.3971 81.4882 12.3083C81.1674 12.212 80.8392 12.1047 80.5034 11.9863C80.1677 11.8679 79.8357 11.7272 79.5075 11.5644C79.1867 11.3942 78.8994 11.1832 78.6458 10.9316C78.3921 10.6725 78.187 10.358 78.0303 9.98788C77.8736 9.61781 77.7953 9.17002 77.7953 8.64451C77.7953 8.15601 77.8886 7.69341 78.0751 7.25672C78.269 6.81263 78.5563 6.42405 78.9368 6.09098C79.3172 5.75792 79.7947 5.49516 80.3691 5.30272C80.9436 5.10288 81.615 5.00296 82.3835 5.00296C82.8012 5.00296 83.2041 5.03997 83.592 5.11398C83.9875 5.188 84.3567 5.29162 84.6999 5.42485C85.0431 5.55807 85.3564 5.71721 85.6399 5.90224C85.9234 6.07988 86.1734 6.27602 86.3897 6.49067L85.6064 7.70081Z" fill="#020202"/>
<path d="M93.7851 5.00296C94.5536 5.00296 95.2548 5.12138 95.889 5.35823C96.5306 5.59508 97.0789 5.93925 97.534 6.39075C97.9965 6.84224 98.3546 7.39735 98.6083 8.05609C98.8694 8.70742 99 9.44757 99 10.2765C99 10.5356 98.9888 10.7465 98.9664 10.9094C98.944 11.0722 98.903 11.2017 98.8433 11.298C98.7836 11.3942 98.7016 11.4608 98.5971 11.4978C98.5001 11.5348 98.3733 11.5533 98.2166 11.5533H91.5246C91.6365 12.5155 91.9312 13.2149 92.4087 13.6516C92.8862 14.0809 93.5016 14.2956 94.2551 14.2956C94.658 14.2956 95.0049 14.2475 95.2959 14.1512C95.5868 14.055 95.8442 13.9477 96.068 13.8293C96.2993 13.7108 96.5082 13.6035 96.6947 13.5073C96.8887 13.4111 97.0901 13.363 97.299 13.363C97.575 13.363 97.7839 13.4629 97.9257 13.6627L98.9328 14.8951C98.5747 15.3022 98.1868 15.6352 97.769 15.8943C97.3587 16.1459 96.9334 16.3458 96.4933 16.4938C96.0606 16.6344 95.6241 16.7307 95.184 16.7825C94.7513 16.8417 94.3372 16.8713 93.9418 16.8713C93.1286 16.8713 92.3639 16.7418 91.6477 16.4827C90.939 16.2163 90.316 15.824 89.7789 15.3059C89.2492 14.7878 88.8277 14.1438 88.5144 13.3741C88.2085 12.6043 88.0555 11.7087 88.0555 10.6873C88.0555 9.91757 88.1861 9.18852 88.4472 8.50018C88.7158 7.81184 89.0963 7.20861 89.5887 6.69051C90.0885 6.1724 90.6891 5.76162 91.3903 5.45815C92.0991 5.15469 92.8974 5.00296 93.7851 5.00296ZM93.8523 7.37885C93.1883 7.37885 92.6698 7.56759 92.2968 7.94506C91.9238 8.31514 91.6776 8.85175 91.5582 9.5549H95.889C95.889 9.28104 95.8517 9.01458 95.7771 8.75553C95.7099 8.49648 95.5943 8.26703 95.4302 8.06719C95.2735 7.85995 95.0646 7.69341 94.8035 7.56759C94.5424 7.44176 94.2253 7.37885 93.8523 7.37885Z" fill="#020202"/>
</svg>
