<svg width="146" height="25" viewBox="0 0 146 25" fill="none" xmlns="http://www.w3.org/2000/svg">
<path d="M6.41298 15.0923V23.8124H0.901215V0.240662H8.63074C10.3484 0.240662 11.8106 0.418622 13.0173 0.774544C14.2349 1.11968 15.2242 1.60503 15.9852 2.23059C16.7571 2.85615 17.3169 3.59495 17.6648 4.44701C18.0127 5.29907 18.1866 6.22662 18.1866 7.22967C18.1866 7.99544 18.0834 8.71807 17.8768 9.39756C17.6703 10.077 17.3604 10.708 16.9473 11.2904C16.5451 11.862 16.045 12.3744 15.4471 12.8274C14.86 13.2803 14.1806 13.6524 13.4087 13.9437C13.7783 14.127 14.1208 14.3535 14.436 14.6231C14.7622 14.8928 15.0448 15.2217 15.284 15.61L20.3392 23.8124H15.3492C14.4252 23.8124 13.762 23.4673 13.3598 22.777L9.41347 15.9336C9.23953 15.6316 9.03298 15.4159 8.79381 15.2864C8.56551 15.157 8.23937 15.0923 7.81539 15.0923H6.41298ZM6.41298 11.3228H8.63074C9.38086 11.3228 10.0168 11.2311 10.5387 11.0477C11.0714 10.8536 11.5062 10.5894 11.8432 10.255C12.1802 9.92066 12.4248 9.53238 12.577 9.09017C12.7292 8.63718 12.8053 8.15183 12.8053 7.63413C12.8053 6.59872 12.4629 5.7898 11.778 5.20739C11.104 4.62497 10.0549 4.33376 8.63074 4.33376H6.41298V11.3228Z" fill="white"/>
<path d="M30.4834 6.77668C31.6031 6.77668 32.6251 6.94925 33.5491 7.29438C34.4841 7.63952 35.2831 8.14105 35.9462 8.79896C36.6203 9.45688 37.1421 10.2658 37.5117 11.2257C37.8922 12.1748 38.0825 13.2534 38.0825 14.4614C38.0825 14.8388 38.0662 15.1462 38.0335 15.3835C38.0009 15.6208 37.9411 15.8095 37.8542 15.9498C37.7672 16.09 37.6476 16.187 37.4954 16.241C37.3541 16.2949 37.1693 16.3219 36.941 16.3219H27.1894C27.3525 17.724 27.7819 18.7432 28.4776 19.3795C29.1734 20.0051 30.0703 20.3179 31.1683 20.3179C31.7553 20.3179 32.2609 20.2478 32.6848 20.1076C33.1088 19.9674 33.4839 19.811 33.81 19.6384C34.147 19.4658 34.4514 19.3094 34.7232 19.1692C35.0059 19.029 35.2994 18.9589 35.6038 18.9589C36.006 18.9589 36.3104 19.1045 36.517 19.3957L37.9846 21.1915C37.4628 21.7847 36.8975 22.2701 36.2887 22.6476C35.6908 23.0143 35.0711 23.3055 34.4297 23.5212C33.7992 23.7261 33.1632 23.8663 32.5218 23.9418C31.8912 24.0281 31.2879 24.0712 30.7117 24.0712C29.5267 24.0712 28.4124 23.8825 27.3688 23.505C26.336 23.1167 25.4282 22.5451 24.6455 21.7901C23.8736 21.0351 23.2594 20.0968 22.8028 18.9751C22.3571 17.8534 22.1342 16.5484 22.1342 15.06C22.1342 13.9383 22.3245 12.8759 22.705 11.8728C23.0963 10.8698 23.6508 9.99076 24.3683 9.23578C25.0966 8.48079 25.9718 7.88219 26.9937 7.43999C28.0265 6.99778 29.1897 6.77668 30.4834 6.77668ZM30.5812 10.2388C29.6137 10.2388 28.8581 10.5139 28.3146 11.0639C27.771 11.6032 27.4122 12.3851 27.2383 13.4098H33.5491C33.5491 13.0107 33.4948 12.6224 33.386 12.2449C33.2882 11.8674 33.1197 11.5331 32.8805 11.2419C32.6522 10.9399 32.3478 10.6972 31.9673 10.5139C31.5868 10.3305 31.1248 10.2388 30.5812 10.2388Z" fill="white"/>
<path d="M41.6356 23.8124V7.03553H44.7666C45.0818 7.03553 45.3427 7.10564 45.5493 7.24585C45.7667 7.38606 45.9189 7.59638 46.0059 7.8768L46.2994 8.8475C46.6255 8.5455 46.9626 8.26508 47.3104 8.00623C47.6583 7.74738 48.028 7.53166 48.4193 7.3591C48.8216 7.17574 49.251 7.03553 49.7076 6.93846C50.175 6.83061 50.6806 6.77668 51.2241 6.77668C52.1482 6.77668 52.9635 6.93846 53.6702 7.26203C54.3877 7.57481 54.991 8.01701 55.4803 8.58864C55.9695 9.14949 56.3391 9.82359 56.5891 10.6109C56.8392 11.3875 56.9642 12.2341 56.9642 13.1509V23.8124H51.909V13.1509C51.909 12.3312 51.7188 11.6949 51.3383 11.2419C50.9578 10.7781 50.3979 10.5462 49.6587 10.5462C49.1042 10.5462 48.5824 10.6649 48.0932 10.9021C47.604 11.1394 47.1365 11.4576 46.6908 11.8567V23.8124H41.6356Z" fill="white"/>
<path d="M67.1423 24.0712C66.3378 24.0712 65.6258 23.958 65.0061 23.7315C64.3973 23.4942 63.8809 23.1653 63.4569 22.7446C63.0438 22.3132 62.7285 21.7955 62.5111 21.1915C62.2937 20.5875 62.185 19.9134 62.185 19.1692V10.4977H60.75C60.4891 10.4977 60.2662 10.4168 60.0814 10.255C59.8966 10.0824 59.8042 9.83437 59.8042 9.51081V7.55324L62.4948 7.03553L63.4895 2.94243C63.62 2.42473 63.9896 2.16587 64.5984 2.16587H67.2402V7.06789H71.3495V10.4977H67.2402V18.8295C67.2402 19.2178 67.3326 19.5413 67.5174 19.8002C67.7131 20.0482 67.9903 20.1723 68.349 20.1723C68.5339 20.1723 68.686 20.1561 68.8056 20.1237C68.9361 20.0806 69.0448 20.0375 69.1318 19.9943C69.2296 19.9404 69.3166 19.8973 69.3927 19.8649C69.4797 19.8218 69.5775 19.8002 69.6862 19.8002C69.8384 19.8002 69.958 19.8379 70.045 19.9134C70.1428 19.9781 70.2406 20.086 70.3385 20.237L71.8713 22.6152C71.2191 23.1005 70.4853 23.4673 69.6699 23.7153C68.8546 23.9526 68.012 24.0712 67.1423 24.0712Z" fill="white"/>
<path d="M74.9172 23.8124V0.240662H83.6577C85.2993 0.240662 86.6963 0.391659 87.8486 0.693653C89.001 0.995647 89.9414 1.42167 90.6698 1.97174C91.3981 2.5218 91.9254 3.1905 92.2515 3.97784C92.5886 4.76518 92.7571 5.6442 92.7571 6.6149C92.7571 7.14339 92.681 7.6557 92.5288 8.15183C92.3766 8.63718 92.1374 9.09556 91.8112 9.52699C91.4851 9.9584 91.0666 10.3521 90.5556 10.708C90.0447 11.0531 89.4304 11.3551 88.7129 11.614C90.2784 11.9915 91.4362 12.6062 92.1863 13.4583C92.9364 14.2996 93.3115 15.3835 93.3115 16.7101C93.3115 17.7132 93.1158 18.6461 92.7244 19.509C92.3331 20.3718 91.7569 21.1268 90.9959 21.7739C90.2458 22.4103 89.3163 22.9118 88.2074 23.2785C87.0985 23.6344 85.832 23.8124 84.4079 23.8124H74.9172ZM80.429 13.8142V19.6869H84.31C85.0384 19.6869 85.6309 19.5953 86.0875 19.4119C86.555 19.2285 86.9191 18.9913 87.1801 18.7001C87.441 18.4088 87.6203 18.0799 87.7182 17.7132C87.816 17.3465 87.865 16.9744 87.865 16.5969C87.865 16.1655 87.8052 15.7772 87.6856 15.4321C87.5769 15.0869 87.3812 14.7957 87.0985 14.5584C86.8267 14.3211 86.4626 14.1378 86.006 14.0084C85.5494 13.8789 84.9732 13.8142 84.2774 13.8142H80.429ZM80.429 10.1579H83.299C83.9078 10.1579 84.4568 10.1148 84.946 10.0285C85.4352 9.94223 85.8483 9.79123 86.1853 9.57552C86.5332 9.35981 86.7941 9.06321 86.9681 8.68571C87.1529 8.30822 87.2453 7.83366 87.2453 7.26203C87.2453 6.70118 87.1746 6.2374 87.0333 5.8707C86.892 5.4932 86.6745 5.19121 86.381 4.96471C86.0875 4.73822 85.7124 4.57644 85.2558 4.47937C84.8101 4.3823 84.2774 4.33376 83.6577 4.33376H80.429V10.1579Z" fill="white"/>
<path d="M108.648 23.8124C108.17 23.8124 107.806 23.7477 107.556 23.6183C107.316 23.4888 107.115 23.2192 106.952 22.8093L106.594 21.8872C106.17 22.2431 105.762 22.5559 105.371 22.8255C104.979 23.0952 104.571 23.327 104.147 23.5212C103.734 23.7045 103.289 23.8394 102.81 23.9256C102.343 24.0227 101.821 24.0712 101.245 24.0712C100.473 24.0712 99.7718 23.9742 99.1413 23.78C98.5107 23.5751 97.9726 23.2785 97.5268 22.8902C97.092 22.502 96.755 22.022 96.5158 21.4504C96.2766 20.8679 96.1571 20.1992 96.1571 19.4443C96.1571 18.8511 96.3093 18.2417 96.6137 17.6161C96.9181 16.9906 97.4453 16.4243 98.1954 15.9174C98.9456 15.3997 99.9566 14.9683 101.229 14.6231C102.5 14.278 104.104 14.0839 106.039 14.0407V13.3289C106.039 12.3474 105.833 11.6409 105.419 11.2095C105.017 10.7673 104.441 10.5462 103.691 10.5462C103.093 10.5462 102.604 10.6109 102.223 10.7404C101.843 10.8698 101.5 11.0154 101.196 11.1772C100.902 11.3389 100.614 11.4846 100.332 11.614C100.049 11.7434 99.712 11.8081 99.3206 11.8081C98.9727 11.8081 98.6738 11.7272 98.4237 11.5654C98.1846 11.3929 97.9943 11.1826 97.853 10.9345L96.9398 9.3652C97.9617 8.47 99.0923 7.8067 100.332 7.37528C101.582 6.93307 102.919 6.71197 104.343 6.71197C105.365 6.71197 106.284 6.87914 107.099 7.21349C107.925 7.53706 108.621 7.99544 109.186 8.58864C109.763 9.17106 110.203 9.86673 110.507 10.6756C110.812 11.4846 110.964 12.369 110.964 13.3289V23.8124H108.648ZM102.843 20.7547C103.495 20.7547 104.066 20.6415 104.555 20.415C105.044 20.1885 105.539 19.8218 106.039 19.3148V16.9852C105.028 17.0283 104.196 17.1146 103.544 17.244C102.892 17.3734 102.375 17.5352 101.995 17.7294C101.614 17.9235 101.348 18.1446 101.196 18.3927C101.055 18.6407 100.984 18.9104 100.984 19.2016C100.984 19.7732 101.142 20.1777 101.457 20.415C101.772 20.6415 102.234 20.7547 102.843 20.7547Z" fill="white"/>
<path d="M125.544 10.708C125.414 10.9129 125.273 11.0585 125.12 11.1448C124.979 11.2311 124.794 11.2742 124.566 11.2742C124.327 11.2742 124.088 11.2257 123.848 11.1286C123.609 11.0208 123.348 10.9075 123.066 10.7889C122.794 10.6702 122.484 10.5624 122.136 10.4653C121.788 10.3575 121.391 10.3035 120.946 10.3035C120.304 10.3035 119.81 10.4276 119.462 10.6756C119.125 10.9129 118.956 11.2473 118.956 11.6787C118.956 11.9915 119.065 12.2503 119.282 12.4552C119.511 12.6602 119.81 12.8435 120.179 13.0053C120.549 13.1563 120.967 13.3019 121.435 13.4421C121.902 13.5823 122.381 13.7387 122.87 13.9113C123.359 14.0839 123.838 14.2888 124.305 14.5261C124.772 14.7526 125.191 15.0384 125.561 15.3835C125.93 15.7179 126.224 16.1277 126.441 16.6131C126.67 17.0984 126.784 17.6808 126.784 18.3603C126.784 19.1908 126.631 19.9566 126.327 20.6576C126.023 21.3587 125.566 21.9627 124.957 22.4696C124.359 22.9765 123.615 23.3702 122.723 23.6506C121.843 23.931 120.826 24.0712 119.674 24.0712C119.098 24.0712 118.521 24.0173 117.945 23.9095C117.369 23.8016 116.809 23.656 116.266 23.4726C115.733 23.2893 115.238 23.0736 114.782 22.8255C114.325 22.5667 113.934 22.2916 113.608 22.0004L114.782 20.1561C114.923 19.9404 115.092 19.7732 115.287 19.6546C115.483 19.5252 115.738 19.4604 116.054 19.4604C116.347 19.4604 116.608 19.5252 116.836 19.6546C117.076 19.784 117.331 19.9242 117.603 20.0752C117.875 20.2262 118.19 20.3664 118.549 20.4958C118.918 20.6253 119.38 20.69 119.935 20.69C120.326 20.69 120.658 20.6522 120.929 20.5767C121.201 20.4905 121.419 20.3772 121.582 20.237C121.745 20.0968 121.864 19.9404 121.94 19.7678C122.017 19.5953 122.055 19.4173 122.055 19.2339C122.055 18.8996 121.94 18.6246 121.712 18.4088C121.484 18.1931 121.185 18.0098 120.815 17.8588C120.446 17.697 120.022 17.5514 119.543 17.422C119.076 17.2818 118.598 17.1254 118.108 16.9528C117.619 16.7802 117.135 16.5753 116.657 16.338C116.19 16.09 115.771 15.7826 115.401 15.4159C115.032 15.0384 114.733 14.58 114.504 14.0407C114.276 13.5014 114.162 12.8489 114.162 12.0831C114.162 11.3713 114.298 10.6972 114.57 10.0609C114.852 9.41374 115.271 8.8475 115.825 8.36215C116.38 7.8768 117.076 7.49392 117.913 7.21349C118.75 6.92228 119.728 6.77668 120.848 6.77668C121.457 6.77668 122.044 6.83061 122.609 6.93846C123.185 7.04632 123.723 7.19731 124.223 7.39145C124.724 7.58559 125.18 7.81748 125.593 8.08712C126.006 8.34597 126.371 8.63179 126.686 8.94457L125.544 10.708Z" fill="white"/>
<path d="M137.462 6.77668C138.582 6.77668 139.604 6.94925 140.528 7.29438C141.463 7.63952 142.262 8.14105 142.925 8.79896C143.599 9.45688 144.121 10.2658 144.491 11.2257C144.871 12.1748 145.062 13.2534 145.062 14.4614C145.062 14.8388 145.045 15.1462 145.013 15.3835C144.98 15.6208 144.92 15.8095 144.833 15.9498C144.746 16.09 144.627 16.187 144.474 16.241C144.333 16.2949 144.148 16.3219 143.92 16.3219H134.168C134.332 17.724 134.761 18.7432 135.457 19.3795C136.152 20.0051 137.049 20.3179 138.147 20.3179C138.734 20.3179 139.24 20.2478 139.664 20.1076C140.088 19.9674 140.463 19.811 140.789 19.6384C141.126 19.4658 141.431 19.3094 141.702 19.1692C141.985 19.029 142.278 18.9589 142.583 18.9589C142.985 18.9589 143.289 19.1045 143.496 19.3957L144.964 21.1915C144.442 21.7847 143.877 22.2701 143.268 22.6476C142.67 23.0143 142.05 23.3055 141.409 23.5212C140.778 23.7261 140.142 23.8663 139.501 23.9418C138.87 24.0281 138.267 24.0712 137.691 24.0712C136.506 24.0712 135.391 23.8825 134.348 23.505C133.315 23.1167 132.407 22.5451 131.625 21.7901C130.853 21.0351 130.238 20.0968 129.782 18.9751C129.336 17.8534 129.113 16.5484 129.113 15.06C129.113 13.9383 129.304 12.8759 129.684 11.8728C130.075 10.8698 130.63 9.99076 131.347 9.23578C132.076 8.48079 132.951 7.88219 133.973 7.43999C135.006 6.99778 136.169 6.77668 137.462 6.77668ZM137.56 10.2388C136.593 10.2388 135.837 10.5139 135.294 11.0639C134.75 11.6032 134.391 12.3851 134.217 13.4098H140.528C140.528 13.0107 140.474 12.6224 140.365 12.2449C140.267 11.8674 140.099 11.5331 139.86 11.2419C139.631 10.9399 139.327 10.6972 138.946 10.5139C138.566 10.3305 138.104 10.2388 137.56 10.2388Z" fill="white"/>
</svg>
