<svg width="160" height="158" viewBox="0 0 160 158" fill="none" xmlns="http://www.w3.org/2000/svg">
<g filter="url(#filter0_d)">
<rect x="53.9385" y="46" width="58.9417" height="57.3699" rx="11" fill="#6E00F0"/>
</g>
<mask id="mask0" style="mask-type:alpha" maskUnits="userSpaceOnUse" x="65" y="58" width="48" height="46">
<path d="M112.843 103.37H80.2666L68.8624 89.8363L69.3344 73.4376L65.9159 68.8476L83.2664 58.2489L100.233 64.4873L112.843 77.7888V103.37Z" fill="#42008F"/>
<path d="M112.843 103.37H80.2666L68.8624 89.8363L69.3344 73.4376L65.9159 68.8476L83.2664 58.2489L100.233 64.4873L112.843 77.7888V103.37Z" fill="url(#paint0_linear)"/>
</mask>
<g mask="url(#mask0)">
<rect x="55.1749" y="44.571" width="62.7512" height="64.7396" rx="11" fill="#48009C"/>
<rect x="55.1749" y="44.571" width="62.7512" height="64.7396" rx="11" fill="url(#paint1_linear)"/>
</g>
<path d="M72.2585 81.5958V88.6439H68.9015V70.6059H74.405C75.6363 70.6059 76.6888 70.7348 77.5623 70.9926C78.4442 71.2421 79.1639 71.5955 79.7213 72.0529C80.287 72.5103 80.6989 73.0592 80.9568 73.6995C81.223 74.3316 81.3561 75.0301 81.3561 75.7952C81.3561 76.4023 81.2646 76.9761 81.0816 77.5167C80.9068 78.0573 80.6489 78.5479 80.3078 78.9887C79.975 79.4295 79.5591 79.8162 79.0599 80.1488C78.569 80.4815 78.0074 80.7476 77.3751 80.9472C77.7994 81.1883 78.1655 81.5335 78.4733 81.9826L82.9909 88.6439H79.9709C79.6797 88.6439 79.4301 88.5857 79.2221 88.4693C79.0224 88.3528 78.8519 88.1865 78.7104 87.9703L74.9167 82.1946C74.7752 81.9784 74.6172 81.8245 74.4424 81.7331C74.276 81.6416 74.0265 81.5958 73.6937 81.5958H72.2585ZM72.2585 79.1883H74.3551C74.9874 79.1883 75.5365 79.1093 76.0024 78.9513C76.4766 78.7933 76.8635 78.577 77.163 78.3026C77.4708 78.0198 77.6996 77.6872 77.8494 77.3046C77.9991 76.9221 78.074 76.5021 78.074 76.0447C78.074 75.1299 77.7703 74.4272 77.163 73.9365C76.564 73.4459 75.6446 73.2005 74.405 73.2005H72.2585V79.1883Z" fill="white"/>
<path d="M85.6269 88.6439V70.6059H91.8541C93.0355 70.6059 94.0422 70.7181 94.8742 70.9427C95.7145 71.1672 96.4009 71.4874 96.9333 71.9032C97.4741 72.319 97.8693 72.8222 98.1189 73.4126C98.3685 74.0031 98.4933 74.6684 98.4933 75.4085C98.4933 75.8327 98.4309 76.2402 98.3061 76.631C98.1813 77.0136 97.9858 77.3753 97.7195 77.7163C97.4616 78.0489 97.1288 78.3525 96.7212 78.6269C96.3218 78.9014 95.8434 79.1342 95.286 79.3255C97.7653 79.8827 99.0049 81.2216 99.0049 83.3423C99.0049 84.1074 98.8593 84.8142 98.5681 85.4629C98.277 86.1116 97.8527 86.6729 97.2952 87.147C96.7378 87.6127 96.0514 87.9786 95.2361 88.2447C94.4208 88.5108 93.489 88.6439 92.4407 88.6439H85.6269ZM88.9839 80.7351V86.0243H92.3908C93.0147 86.0243 93.5347 85.9494 93.9507 85.7997C94.375 85.65 94.712 85.4504 94.9616 85.201C95.2195 84.9515 95.4025 84.6604 95.5107 84.3277C95.6271 83.9951 95.6854 83.6417 95.6854 83.2674C95.6854 82.8766 95.623 82.5273 95.4982 82.2196C95.3734 81.9035 95.1779 81.6374 94.9116 81.4212C94.6454 81.1967 94.3043 81.0262 93.8883 80.9097C93.4723 80.7933 92.969 80.7351 92.3783 80.7351H88.9839ZM88.9839 78.4149H91.667C92.8068 78.4149 93.672 78.207 94.2627 77.7911C94.8534 77.3753 95.1487 76.7142 95.1487 75.8077C95.1487 74.868 94.8825 74.1985 94.3501 73.7993C93.8176 73.4001 92.9856 73.2005 91.8541 73.2005H88.9839V78.4149Z" fill="white"/>
<path d="M83.4599 59.8348L65.9023 68.5043V64.5572L83.4599 55.8173L100.876 64.2821V68.2224L83.4599 59.8348Z" fill="white"/>
<defs>
<filter id="filter0_d" x="0.938477" y="0" width="158.942" height="157.37" filterUnits="userSpaceOnUse" color-interpolation-filters="sRGB">
<feFlood flood-opacity="0" result="BackgroundImageFix"/>
<feColorMatrix in="SourceAlpha" type="matrix" values="0 0 0 0 0 0 0 0 0 0 0 0 0 0 0 0 0 0 127 0" result="hardAlpha"/>
<feOffset dx="-3" dy="4"/>
<feGaussianBlur stdDeviation="25"/>
<feColorMatrix type="matrix" values="0 0 0 0 0 0 0 0 0 0 0 0 0 0 0 0 0 0 0.21 0"/>
<feBlend mode="normal" in2="BackgroundImageFix" result="effect1_dropShadow"/>
<feBlend mode="normal" in="SourceGraphic" in2="effect1_dropShadow" result="shape"/>
</filter>
<linearGradient id="paint0_linear" x1="73.6504" y1="68.8759" x2="109.292" y2="101.289" gradientUnits="userSpaceOnUse">
<stop stop-color="#3D0085"/>
<stop offset="1" stop-color="#5806B9"/>
</linearGradient>
<linearGradient id="paint1_linear" x1="79.5753" y1="64.3947" x2="105.086" y2="101.511" gradientUnits="userSpaceOnUse">
<stop stop-color="#38007B"/>
<stop offset="1" stop-color="#5806B9"/>
</linearGradient>
</defs>
</svg>
