<svg width="182" height="182" viewBox="0 0 182 182" fill="none" xmlns="http://www.w3.org/2000/svg">
<rect x="22" y="21" width="138.699" height="135" rx="27" fill="#6E00F0"/>
<mask id="mask0" style="mask-type:alpha" maskUnits="userSpaceOnUse" x="50" y="49" width="111" height="107">
<path d="M160.611 155.999H83.9542L57.1184 124.153L58.229 85.5646L50.1848 74.7637L91.0132 49.8233L130.937 64.5032L160.611 95.8035V155.999Z" fill="#42008F"/>
<path d="M160.611 155.999H83.9542L57.1184 124.153L58.229 85.5646L50.1848 74.7637L91.0132 49.8233L130.937 64.5032L160.611 95.8035V155.999Z" fill="url(#paint0_linear)"/>
</mask>
<g mask="url(#mask0)">
<rect x="24.9095" y="17.6367" width="147.663" height="152.342" rx="11" fill="#48009C"/>
<rect x="24.9095" y="17.6367" width="147.663" height="152.342" rx="11" fill="url(#paint1_linear)"/>
</g>
<path d="M65.1098 104.762V121.347H57.2103V78.9012H70.1608C73.0583 78.9012 75.5348 79.2045 77.5905 79.8112C79.6657 80.3982 81.3591 81.2299 82.6708 82.3063C84.0021 83.3826 84.9712 84.6742 85.5781 86.181C86.2046 87.6683 86.5178 89.3121 86.5178 91.1125C86.5178 92.5411 86.3025 93.8914 85.8718 95.1634C85.4606 96.4354 84.8537 97.59 84.0511 98.6272C83.268 99.6644 82.2891 100.574 81.1144 101.357C79.9594 102.14 78.6379 102.766 77.15 103.236C78.1484 103.803 79.0098 104.615 79.7342 105.672L90.3648 121.347H83.2582C82.573 121.347 81.9856 121.21 81.4962 120.936C81.0263 120.662 80.625 120.271 80.2922 119.762L71.3648 106.171C71.032 105.662 70.66 105.3 70.2489 105.085C69.8574 104.87 69.27 104.762 68.4869 104.762H65.1098ZM65.1098 99.0969H70.0434C71.5312 99.0969 72.8234 98.911 73.9197 98.5391C75.0356 98.1673 75.946 97.6585 76.6508 97.0127C77.3751 96.3474 77.9135 95.5646 78.2659 94.6644C78.6183 93.7642 78.7945 92.7759 78.7945 91.6996C78.7945 89.547 78.0799 87.8933 76.6508 86.7387C75.2412 85.5841 73.0779 85.0068 70.1608 85.0068H65.1098V99.0969Z" fill="white"/>
<path d="M96.5675 121.347V78.9012H111.221C114.001 78.9012 116.37 79.1654 118.328 79.6937C120.305 80.2221 121.92 80.9755 123.173 81.954C124.446 82.9325 125.376 84.1164 125.963 85.5059C126.55 86.8953 126.844 88.4609 126.844 90.2025C126.844 91.2006 126.697 92.1595 126.404 93.0793C126.11 93.9795 125.65 94.8307 125.023 95.6331C124.417 96.4159 123.633 97.1301 122.674 97.7759C121.734 98.4217 120.609 98.9697 119.297 99.4198C125.131 100.731 128.048 103.882 128.048 108.872C128.048 110.672 127.706 112.336 127.02 113.862C126.335 115.388 125.337 116.709 124.025 117.825C122.713 118.921 121.098 119.782 119.18 120.408C117.261 121.034 115.068 121.347 112.601 121.347H96.5675ZM104.467 102.737V115.183H112.484C113.952 115.183 115.176 115.007 116.155 114.655C117.153 114.302 117.946 113.833 118.533 113.246C119.14 112.659 119.571 111.974 119.826 111.191C120.1 110.408 120.237 109.576 120.237 108.696C120.237 107.776 120.09 106.954 119.796 106.23C119.503 105.486 119.042 104.86 118.416 104.351C117.79 103.823 116.987 103.422 116.008 103.148C115.029 102.874 113.845 102.737 112.455 102.737H104.467ZM104.467 97.2769H110.781C113.463 97.2769 115.499 96.7877 116.889 95.8092C118.279 94.8307 118.974 93.275 118.974 91.1419C118.974 88.9305 118.347 87.3552 117.095 86.4159C115.842 85.4765 113.884 85.0068 111.221 85.0068H104.467V97.2769Z" fill="white"/>
<path d="M91.4683 53.5553L50.1526 73.9559V64.6679L91.4683 44.1014L132.452 64.0205V73.2925L91.4683 53.5553Z" fill="white"/>
<defs>
<linearGradient id="paint0_linear" x1="68.3852" y1="74.8302" x2="152.254" y2="151.102" gradientUnits="userSpaceOnUse">
<stop stop-color="#3D0085"/>
<stop offset="1" stop-color="#5806B9"/>
</linearGradient>
<linearGradient id="paint1_linear" x1="82.3273" y1="64.2847" x2="142.357" y2="151.626" gradientUnits="userSpaceOnUse">
<stop stop-color="#38007B"/>
<stop offset="1" stop-color="#5806B9"/>
</linearGradient>
</defs>
</svg>
