<svg width="167" height="45" viewBox="0 0 167 45" fill="none" xmlns="http://www.w3.org/2000/svg">
<path d="M68.2778 24.6717V29.5919H65.1679V16.292H69.5291C70.4983 16.292 71.3233 16.3924 72.0042 16.5932C72.6912 16.7879 73.2494 17.0618 73.6787 17.4147C74.1142 17.7677 74.4301 18.1846 74.6264 18.6653C74.8227 19.1461 74.9209 19.6694 74.9209 20.2354C74.9209 20.6675 74.8626 21.0752 74.746 21.4586C74.6295 21.842 74.4547 22.198 74.2216 22.5266C73.9946 22.8491 73.7125 23.1382 73.3751 23.3938C73.0439 23.6494 72.6605 23.8593 72.225 24.0236C72.4335 24.1271 72.6268 24.2549 72.8046 24.407C72.9887 24.5592 73.1481 24.7448 73.2831 24.9638L76.1354 29.5919H73.3199C72.7985 29.5919 72.4243 29.3971 72.1974 29.0077L69.9708 25.1464C69.8726 24.976 69.7561 24.8543 69.6211 24.7813C69.4923 24.7082 69.3083 24.6717 69.0691 24.6717H68.2778ZM68.2778 22.5448H69.5291C69.9524 22.5448 70.3112 22.4931 70.6056 22.3897C70.9062 22.2801 71.1515 22.131 71.3417 21.9424C71.5318 21.7537 71.6699 21.5346 71.7557 21.2851C71.8416 21.0296 71.8846 20.7557 71.8846 20.4636C71.8846 19.8794 71.6913 19.423 71.3049 19.0944C70.9246 18.7657 70.3327 18.6014 69.5291 18.6014H68.2778V22.5448Z" fill="#020202"/>
<path d="M81.8591 19.9798C82.4909 19.9798 83.0675 20.0772 83.5888 20.2719C84.1164 20.4666 84.5672 20.7496 84.9414 21.1208C85.3217 21.492 85.6161 21.9485 85.8247 22.4901C86.0394 23.0256 86.1467 23.6342 86.1467 24.3157C86.1467 24.5287 86.1375 24.7022 86.1191 24.836C86.1007 24.9699 86.067 25.0764 86.0179 25.1555C85.9688 25.2346 85.9013 25.2894 85.8155 25.3198C85.7357 25.3503 85.6315 25.3655 85.5026 25.3655H80.0005C80.0925 26.1566 80.3348 26.7317 80.7274 27.0907C81.1199 27.4437 81.626 27.6202 82.2455 27.6202C82.5767 27.6202 82.862 27.5806 83.1012 27.5015C83.3404 27.4224 83.552 27.3342 83.7361 27.2368C83.9262 27.1394 84.098 27.0512 84.2513 26.9721C84.4108 26.893 84.5764 26.8534 84.7482 26.8534C84.9751 26.8534 85.1469 26.9356 85.2634 27.0999L86.0915 28.1131C85.7971 28.4478 85.4781 28.7217 85.1346 28.9346C84.7972 29.1416 84.4476 29.3059 84.0857 29.4276C83.7299 29.5432 83.3711 29.6223 83.0092 29.6649C82.6534 29.7136 82.313 29.7379 81.9879 29.7379C81.3193 29.7379 80.6906 29.6314 80.1017 29.4184C79.519 29.1994 79.0068 28.8768 78.5651 28.4508C78.1296 28.0249 77.7831 27.4954 77.5254 26.8625C77.2739 26.2296 77.1482 25.4933 77.1482 24.6535C77.1482 24.0206 77.2555 23.4212 77.4702 22.8552C77.6911 22.2893 78.0039 21.7933 78.4087 21.3673C78.8197 20.9413 79.3135 20.6036 79.8901 20.3541C80.4728 20.1045 81.1291 19.9798 81.8591 19.9798ZM81.9143 21.9333C81.3684 21.9333 80.942 22.0884 80.6354 22.3988C80.3287 22.7031 80.1262 23.1443 80.0281 23.7224H83.5888C83.5888 23.4972 83.5582 23.2782 83.4968 23.0652C83.4416 22.8522 83.3466 22.6635 83.2116 22.4992C83.0828 22.3288 82.911 22.1919 82.6964 22.0884C82.4817 21.985 82.221 21.9333 81.9143 21.9333Z" fill="#020202"/>
<path d="M88.1515 29.5919V20.1258H89.9181C90.096 20.1258 90.2432 20.1654 90.3597 20.2445C90.4824 20.3236 90.5683 20.4423 90.6173 20.6005L90.783 21.1482C90.967 20.9778 91.1571 20.8196 91.3534 20.6735C91.5497 20.5275 91.7583 20.4058 91.9791 20.3084C92.206 20.205 92.4483 20.1258 92.706 20.0711C92.9697 20.0102 93.255 19.9798 93.5616 19.9798C94.083 19.9798 94.5431 20.0711 94.9418 20.2536C95.3466 20.4301 95.6871 20.6796 95.9631 21.0022C96.2391 21.3186 96.4477 21.699 96.5888 22.1432C96.7298 22.5814 96.8004 23.0591 96.8004 23.5763V29.5919H93.9481V23.5763C93.9481 23.1138 93.8407 22.7548 93.6261 22.4992C93.4114 22.2375 93.0955 22.1067 92.6784 22.1067C92.3655 22.1067 92.0711 22.1736 91.7951 22.3075C91.519 22.4414 91.2553 22.6209 91.0038 22.8461V29.5919H88.1515Z" fill="#020202"/>
<path d="M102.543 29.7379C102.089 29.7379 101.688 29.674 101.338 29.5462C100.994 29.4124 100.703 29.2268 100.464 28.9894C100.231 28.746 100.053 28.4539 99.9301 28.1131C99.8074 27.7723 99.7461 27.392 99.7461 26.9721V22.0793H98.9364C98.7892 22.0793 98.6635 22.0337 98.5592 21.9424C98.4549 21.845 98.4028 21.705 98.4028 21.5225V20.418L99.9209 20.1258L100.482 17.8164C100.556 17.5243 100.764 17.3782 101.108 17.3782H102.598V20.1441H104.917V22.0793H102.598V26.7804C102.598 26.9994 102.651 27.182 102.755 27.3281C102.865 27.468 103.022 27.538 103.224 27.538C103.328 27.538 103.414 27.5289 103.482 27.5106C103.555 27.4863 103.617 27.4619 103.666 27.4376C103.721 27.4072 103.77 27.3828 103.813 27.3646C103.862 27.3402 103.917 27.3281 103.979 27.3281C104.064 27.3281 104.132 27.3494 104.181 27.392C104.236 27.4285 104.291 27.4893 104.347 27.5745L105.211 28.9164C104.843 29.1902 104.429 29.3971 103.969 29.5371C103.509 29.671 103.034 29.7379 102.543 29.7379Z" fill="#020202"/>
<path d="M106.93 29.5919V16.292H111.862C112.788 16.292 113.576 16.3772 114.226 16.5476C114.877 16.718 115.407 16.9583 115.818 17.2687C116.229 17.5791 116.527 17.9564 116.711 18.4006C116.901 18.8448 116.996 19.3408 116.996 19.8885C116.996 20.1867 116.953 20.4758 116.867 20.7557C116.781 21.0295 116.646 21.2882 116.462 21.5316C116.278 21.775 116.042 21.9971 115.754 22.198C115.465 22.3927 115.119 22.5631 114.714 22.7092C115.597 22.9221 116.251 23.269 116.674 23.7498C117.097 24.2245 117.309 24.836 117.309 25.5846C117.309 26.1505 117.198 26.6769 116.977 27.1638C116.757 27.6506 116.432 28.0766 116.002 28.4417C115.579 28.8008 115.054 29.0837 114.429 29.2906C113.803 29.4915 113.089 29.5919 112.285 29.5919H106.93ZM110.04 23.9506V27.2642H112.23C112.641 27.2642 112.975 27.2124 113.233 27.109C113.496 27.0055 113.702 26.8717 113.849 26.7073C113.996 26.543 114.098 26.3574 114.153 26.1505C114.208 25.9436 114.236 25.7337 114.236 25.5207C114.236 25.2772 114.202 25.0582 114.134 24.8634C114.073 24.6687 113.963 24.5044 113.803 24.3705C113.65 24.2366 113.444 24.1332 113.187 24.0601C112.929 23.9871 112.604 23.9506 112.211 23.9506H110.04ZM110.04 21.8876H111.659C112.003 21.8876 112.313 21.8633 112.589 21.8146C112.865 21.7659 113.098 21.6807 113.288 21.559C113.484 21.4373 113.631 21.2699 113.73 21.0569C113.834 20.8439 113.886 20.5762 113.886 20.2536C113.886 19.9372 113.846 19.6755 113.766 19.4686C113.687 19.2556 113.564 19.0852 113.398 18.9574C113.233 18.8296 113.021 18.7383 112.763 18.6836C112.512 18.6288 112.211 18.6014 111.862 18.6014H110.04V21.8876Z" fill="#020202"/>
<path d="M125.962 29.5919C125.692 29.5919 125.487 29.5554 125.346 29.4823C125.211 29.4093 125.097 29.2572 125.005 29.0259L124.803 28.5056C124.564 28.7064 124.334 28.8829 124.113 29.0351C123.892 29.1872 123.662 29.318 123.423 29.4276C123.19 29.531 122.938 29.6071 122.668 29.6558C122.404 29.7106 122.11 29.7379 121.785 29.7379C121.349 29.7379 120.954 29.6832 120.598 29.5736C120.242 29.458 119.939 29.2906 119.687 29.0716C119.442 28.8525 119.252 28.5817 119.117 28.2592C118.982 27.9305 118.914 27.5532 118.914 27.1272C118.914 26.7925 119 26.4487 119.172 26.0957C119.344 25.7428 119.641 25.4233 120.064 25.1373C120.488 24.8452 121.058 24.6018 121.776 24.407C122.493 24.2123 123.398 24.1027 124.49 24.0784V23.6768C124.49 23.123 124.373 22.7244 124.14 22.4809C123.913 22.2314 123.588 22.1067 123.165 22.1067C122.828 22.1067 122.552 22.1432 122.337 22.2162C122.122 22.2893 121.929 22.3714 121.757 22.4627C121.592 22.554 121.429 22.6361 121.27 22.7092C121.11 22.7822 120.92 22.8187 120.699 22.8187C120.503 22.8187 120.334 22.7731 120.193 22.6818C120.058 22.5844 119.951 22.4657 119.871 22.3258L119.356 21.4403C119.932 20.9352 120.57 20.561 121.27 20.3175C121.975 20.068 122.73 19.9433 123.533 19.9433C124.11 19.9433 124.628 20.0376 125.088 20.2263C125.554 20.4088 125.947 20.6675 126.266 21.0022C126.591 21.3308 126.839 21.7233 127.011 22.1797C127.183 22.6361 127.269 23.1351 127.269 23.6768V29.5919H125.962ZM122.687 27.8666C123.055 27.8666 123.377 27.8027 123.653 27.6749C123.929 27.5471 124.208 27.3402 124.49 27.0542V25.7397C123.92 25.7641 123.45 25.8128 123.082 25.8858C122.714 25.9588 122.423 26.0501 122.208 26.1596C121.993 26.2692 121.843 26.3939 121.757 26.5339C121.678 26.6739 121.638 26.826 121.638 26.9903C121.638 27.3129 121.727 27.5411 121.905 27.6749C122.082 27.8027 122.343 27.8666 122.687 27.8666Z" fill="#020202"/>
<path d="M135.495 22.198C135.422 22.3136 135.342 22.3958 135.256 22.4444C135.176 22.4931 135.072 22.5175 134.943 22.5175C134.808 22.5175 134.674 22.4901 134.539 22.4353C134.404 22.3745 134.256 22.3106 134.097 22.2436C133.944 22.1767 133.769 22.1158 133.572 22.061C133.376 22.0002 133.152 21.9698 132.901 21.9698C132.539 21.9698 132.26 22.0397 132.063 22.1797C131.873 22.3136 131.778 22.5022 131.778 22.7457C131.778 22.9221 131.84 23.0682 131.962 23.1838C132.091 23.2995 132.26 23.4029 132.468 23.4942C132.677 23.5794 132.913 23.6615 133.177 23.7407C133.441 23.8198 133.71 23.908 133.986 24.0054C134.263 24.1027 134.532 24.2184 134.796 24.3522C135.06 24.48 135.296 24.6413 135.505 24.836C135.713 25.0247 135.879 25.2559 136.001 25.5298C136.13 25.8036 136.195 26.1323 136.195 26.5157C136.195 26.9842 136.109 27.4163 135.937 27.8119C135.765 28.2074 135.508 28.5482 135.164 28.8342C134.827 29.1203 134.407 29.3424 133.904 29.5006C133.407 29.6588 132.833 29.7379 132.183 29.7379C131.858 29.7379 131.533 29.7075 131.208 29.6467C130.883 29.5858 130.567 29.5036 130.26 29.4002C129.96 29.2967 129.68 29.175 129.423 29.0351C129.165 28.889 128.944 28.7338 128.76 28.5695L129.423 27.5289C129.503 27.4072 129.598 27.3129 129.708 27.2459C129.818 27.1729 129.963 27.1364 130.141 27.1364C130.306 27.1364 130.453 27.1729 130.582 27.2459C130.717 27.3189 130.861 27.3981 131.015 27.4832C131.168 27.5684 131.346 27.6476 131.548 27.7206C131.757 27.7936 132.017 27.8301 132.33 27.8301C132.551 27.8301 132.738 27.8088 132.892 27.7662C133.045 27.7175 133.168 27.6536 133.26 27.5745C133.352 27.4954 133.419 27.4072 133.462 27.3098C133.505 27.2124 133.526 27.112 133.526 27.0086C133.526 26.8199 133.462 26.6647 133.333 26.543C133.204 26.4213 133.036 26.3179 132.827 26.2327C132.619 26.1414 132.379 26.0592 132.11 25.9862C131.846 25.9071 131.576 25.8189 131.3 25.7215C131.024 25.6241 130.751 25.5085 130.481 25.3746C130.217 25.2346 129.981 25.0612 129.772 24.8543C129.564 24.6413 129.395 24.3827 129.266 24.0784C129.138 23.7741 129.073 23.4059 129.073 22.9739C129.073 22.5722 129.15 22.1919 129.303 21.8328C129.463 21.4677 129.699 21.1482 130.012 20.8744C130.325 20.6005 130.717 20.3845 131.189 20.2263C131.662 20.062 132.214 19.9798 132.846 19.9798C133.189 19.9798 133.52 20.0102 133.839 20.0711C134.164 20.1319 134.468 20.2171 134.75 20.3267C135.032 20.4362 135.29 20.5671 135.523 20.7192C135.756 20.8652 135.962 21.0265 136.14 21.203L135.495 22.198Z" fill="#020202"/>
<path d="M142.22 19.9798C142.852 19.9798 143.428 20.0772 143.95 20.2719C144.477 20.4666 144.928 20.7496 145.302 21.1208C145.683 21.492 145.977 21.9485 146.186 22.4901C146.4 23.0256 146.508 23.6342 146.508 24.3157C146.508 24.5287 146.498 24.7022 146.48 24.836C146.462 24.9699 146.428 25.0764 146.379 25.1555C146.33 25.2346 146.262 25.2894 146.176 25.3198C146.097 25.3503 145.992 25.3655 145.864 25.3655H140.361C140.453 26.1566 140.696 26.7317 141.088 27.0907C141.481 27.4437 141.987 27.6202 142.606 27.6202C142.938 27.6202 143.223 27.5806 143.462 27.5015C143.701 27.4224 143.913 27.3342 144.097 27.2368C144.287 27.1394 144.459 27.0512 144.612 26.9721C144.772 26.893 144.937 26.8534 145.109 26.8534C145.336 26.8534 145.508 26.9356 145.624 27.0999L146.452 28.1131C146.158 28.4478 145.839 28.7217 145.496 28.9346C145.158 29.1416 144.809 29.3059 144.447 29.4276C144.091 29.5432 143.732 29.6223 143.37 29.6649C143.014 29.7136 142.674 29.7379 142.349 29.7379C141.68 29.7379 141.052 29.6314 140.463 29.4184C139.88 29.1994 139.368 28.8768 138.926 28.4508C138.491 28.0249 138.144 27.4954 137.886 26.8625C137.635 26.2296 137.509 25.4933 137.509 24.6535C137.509 24.0206 137.617 23.4212 137.831 22.8552C138.052 22.2893 138.365 21.7933 138.77 21.3673C139.181 20.9413 139.674 20.6036 140.251 20.3541C140.834 20.1045 141.49 19.9798 142.22 19.9798ZM142.275 21.9333C141.729 21.9333 141.303 22.0884 140.996 22.3988C140.69 22.7031 140.487 23.1443 140.389 23.7224H143.95C143.95 23.4972 143.919 23.2782 143.858 23.0652C143.803 22.8522 143.708 22.6635 143.573 22.4992C143.444 22.3288 143.272 22.1919 143.057 22.0884C142.843 21.985 142.582 21.9333 142.275 21.9333Z" fill="#020202"/>
<rect x="24" y="6" width="33.2568" height="32.3699" rx="9" fill="#6E00F0"/>
<mask id="mask0" style="mask-type:alpha" maskUnits="userSpaceOnUse" x="30" y="12" width="28" height="27">
<path d="M57.2358 38.3697H38.8552L32.4206 30.7337L32.6869 21.4811L30.758 18.8913L40.5478 12.9111L50.1206 16.4311L57.2358 23.9362V38.3697Z" fill="#42008F"/>
<path d="M57.2358 38.3697H38.8552L32.4206 30.7337L32.6869 21.4811L30.758 18.8913L40.5478 12.9111L50.1206 16.4311L57.2358 23.9362V38.3697Z" fill="url(#paint0_linear)"/>
</mask>
<g mask="url(#mask0)">
<rect x="24.6976" y="5.19353" width="35.4062" height="36.5281" rx="11" fill="#48009C"/>
<rect x="24.6976" y="5.19353" width="35.4062" height="36.5281" rx="11" fill="url(#paint1_linear)"/>
</g>
<path d="M34.3368 26.0843V30.061H32.4427V19.8834H35.5479C36.2426 19.8834 36.8365 19.9561 37.3294 20.1016C37.8269 20.2423 38.233 20.4418 38.5475 20.6999C38.8667 20.9579 39.0991 21.2676 39.2446 21.6289C39.3948 21.9855 39.4699 22.3797 39.4699 22.8114C39.4699 23.1539 39.4183 23.4777 39.315 23.7827C39.2164 24.0877 39.0709 24.3645 38.8785 24.6132C38.6907 24.8619 38.456 25.0801 38.1743 25.2678C37.8974 25.4555 37.5805 25.6057 37.2237 25.7183C37.4631 25.8544 37.6697 26.0491 37.8434 26.3025L40.3923 30.061H38.6883C38.524 30.061 38.3832 30.0282 38.2659 29.9625C38.1532 29.8968 38.057 29.8029 37.9772 29.6809L35.8366 26.4221C35.7568 26.3001 35.6676 26.2133 35.569 26.1617C35.4751 26.1101 35.3343 26.0843 35.1465 26.0843H34.3368ZM34.3368 24.7259H35.5197C35.8765 24.7259 36.1863 24.6813 36.4492 24.5921C36.7168 24.503 36.935 24.381 37.104 24.2261C37.2777 24.0666 37.4068 23.8789 37.4913 23.663C37.5758 23.4472 37.6181 23.2102 37.6181 22.9522C37.6181 22.436 37.4467 22.0395 37.104 21.7627C36.766 21.4858 36.2473 21.3474 35.5479 21.3474H34.3368V24.7259Z" fill="white"/>
<path d="M41.8796 30.061V19.8834H45.3933C46.0598 19.8834 46.6278 19.9467 47.0973 20.0734C47.5714 20.2001 47.9587 20.3808 48.2591 20.6154C48.5642 20.85 48.7872 21.1339 48.928 21.467C49.0688 21.8002 49.1393 22.1756 49.1393 22.5932C49.1393 22.8325 49.104 23.0624 49.0336 23.283C48.9632 23.4988 48.8529 23.7029 48.7027 23.8953C48.5572 24.083 48.3694 24.2543 48.1394 24.4091C47.9141 24.564 47.6441 24.6954 47.3296 24.8033C48.7285 25.1177 49.4279 25.8731 49.4279 27.0697C49.4279 27.5014 49.3458 27.9002 49.1815 28.2662C49.0172 28.6322 48.7778 28.9489 48.4633 29.2164C48.1488 29.4792 47.7615 29.6856 47.3015 29.8358C46.8414 29.9859 46.3157 30.061 45.7242 30.061H41.8796ZM43.7737 25.5986V28.5829H45.696C46.0481 28.5829 46.3415 28.5407 46.5762 28.4562C46.8156 28.3718 47.0057 28.2592 47.1465 28.1184C47.2921 27.9776 47.3953 27.8134 47.4564 27.6257C47.5221 27.438 47.5549 27.2386 47.5549 27.0274C47.5549 26.8069 47.5197 26.6098 47.4493 26.4362C47.3789 26.2579 47.2686 26.1077 47.1184 25.9857C46.9682 25.8591 46.7757 25.7629 46.541 25.6972C46.3063 25.6315 46.0223 25.5986 45.689 25.5986H43.7737ZM43.7737 24.2895H45.2876C45.9307 24.2895 46.4189 24.1722 46.7522 23.9375C47.0855 23.7029 47.2522 23.3299 47.2522 22.8184C47.2522 22.2882 47.102 21.9105 46.8015 21.6852C46.5011 21.46 46.0317 21.3474 45.3933 21.3474H43.7737V24.2895Z" fill="white"/>
<path d="M40.6569 13.806L30.7504 18.6976V16.4706L40.6569 11.5392L50.4839 16.3153V18.5385L40.6569 13.806Z" fill="white"/>
<defs>
<linearGradient id="paint0_linear" x1="35.1221" y1="18.9072" x2="55.232" y2="37.1956" gradientUnits="userSpaceOnUse">
<stop stop-color="#3D0085"/>
<stop offset="1" stop-color="#5806B9"/>
</linearGradient>
<linearGradient id="paint1_linear" x1="38.4651" y1="16.3787" x2="52.8588" y2="37.321" gradientUnits="userSpaceOnUse">
<stop stop-color="#38007B"/>
<stop offset="1" stop-color="#5806B9"/>
</linearGradient>
</defs>
</svg>
