<svg width="433" height="48" viewBox="0 0 433 48" fill="none" xmlns="http://www.w3.org/2000/svg">
<path d="M428.21 47.346C428.406 47.5412 428.722 47.5412 428.918 47.346L432.099 44.164C432.295 43.9687 432.295 43.6522 432.099 43.4569C431.904 43.2616 431.588 43.2616 431.392 43.4569L428.564 46.2853L425.736 43.4569C425.54 43.2616 425.224 43.2616 425.028 43.4569C424.833 43.6522 424.833 43.9687 425.028 44.164L428.21 47.346ZM21.3423 21.5H404.564V20.5H21.3423V21.5ZM428.064 45V46.9924H429.064V45H428.064ZM404.564 21.5C417.543 21.5 428.064 32.0213 428.064 45H429.064C429.064 31.469 418.095 20.5 404.564 20.5V21.5ZM0.636749 0.794434C0.636749 12.2298 9.90695 21.5 21.3423 21.5V20.5C10.4592 20.5 1.63675 11.6775 1.63675 0.794434H0.636749Z" fill="#110F0F"/>
</svg>
