<svg width="460" height="73" viewBox="0 0 460 73" fill="none" xmlns="http://www.w3.org/2000/svg">
<path d="M455.146 72.3536C455.342 72.5488 455.658 72.5488 455.854 72.3536L459.036 69.1716C459.231 68.9763 459.231 68.6597 459.036 68.4645C458.84 68.2692 458.524 68.2692 458.328 68.4645L455.5 71.2929L452.672 68.4645C452.476 68.2692 452.16 68.2692 451.964 68.4645C451.769 68.6597 451.769 68.9763 451.964 69.1716L455.146 72.3536ZM19.8147 19.5H431.5V18.5H19.8147V19.5ZM455 43V72H456V43H455ZM431.5 19.5C444.479 19.5 455 30.0213 455 43H456C456 29.469 445.031 18.5 431.5 18.5V19.5ZM0.5 0.185303C0.5 10.8525 9.14748 19.5 19.8147 19.5V18.5C9.69977 18.5 1.5 10.3002 1.5 0.185303H0.5Z" fill="#110F0F"/>
</svg>
