<svg width="199" height="129" viewBox="0 0 199 129" fill="none" xmlns="http://www.w3.org/2000/svg">
<path d="M199 1C199 0.723858 198.776 0.5 198.5 0.5C198.224 0.5 198 0.723858 198 1H199ZM3.55514 128.67C3.7504 128.865 4.06698 128.865 4.26224 128.67L7.44423 125.488C7.63949 125.293 7.63949 124.976 7.44423 124.781C7.24896 124.586 6.93238 124.586 6.73712 124.781L3.90869 127.609L1.08026 124.781C0.885002 124.586 0.56842 124.586 0.373158 124.781C0.177895 124.976 0.177895 125.293 0.373158 125.488L3.55514 128.67ZM198 1V46H199V1H198ZM174.5 69.5H27.9087V70.5H174.5V69.5ZM3.40869 94V128.316H4.40869V94H3.40869ZM27.9087 69.5C14.3777 69.5 3.40869 80.469 3.40869 94H4.40869C4.40869 81.0213 14.93 70.5 27.9087 70.5V69.5ZM198 46C198 58.9787 187.479 69.5 174.5 69.5V70.5C188.031 70.5 199 59.531 199 46H198Z" fill="#110F0F"/>
</svg>
