<svg width="148" height="21" viewBox="0 0 148 21" fill="none" xmlns="http://www.w3.org/2000/svg">
<rect x="0.5" y="0.5" width="147" height="20" rx="3.5" stroke="#3D0085"/>
<path d="M12.4746 14.75V14.0117L13.4297 13.8477V7.12695L12.4746 6.96289V6.21875H18.791V8.26953H17.8652L17.7363 7.10938H14.584V9.88672H17.7305V10.7949H14.584V13.8828H17.9238L18.0527 12.7051H18.9727V14.75H12.4746ZM19.8984 14.75V14.0117L20.6016 13.877L22.4941 11.5449L20.6426 9.28906L20.0156 9.1543V8.41016H22.5V9.1543L21.8672 9.22461L23.168 10.8418L24.4336 9.21875L23.7539 9.1543V8.41016H26.1973V9.1543L25.5527 9.28906L23.8359 11.5273L25.8105 13.877L26.4668 14.0117V14.75H23.7773V14.0117L24.5391 13.9473L23.1504 12.2539L21.8027 13.9473L22.4883 14.0117V14.75H19.8984ZM29.8887 14.873C29.3145 14.873 28.8145 14.7402 28.3887 14.4746C27.9629 14.2051 27.6328 13.832 27.3984 13.3555C27.1641 12.8789 27.0469 12.3281 27.0469 11.7031V11.457C27.0469 10.8555 27.1602 10.3164 27.3867 9.83984C27.6133 9.36328 27.9395 8.98633 28.3652 8.70898C28.791 8.43164 29.2988 8.29297 29.8887 8.29297C30.4004 8.29297 30.8477 8.37695 31.2305 8.54492C31.6172 8.71289 31.9414 8.94336 32.2031 9.23633L32.2324 10.7598H31.3301L31.1309 9.65234C30.998 9.51562 30.832 9.40625 30.6328 9.32422C30.4336 9.24219 30.1992 9.20117 29.9297 9.20117C29.5859 9.20117 29.2832 9.30273 29.0215 9.50586C28.7637 9.70898 28.5625 9.98047 28.418 10.3203C28.2734 10.6602 28.2012 11.0391 28.2012 11.457V11.7031C28.2012 12.3984 28.3516 12.9512 28.6523 13.3613C28.9531 13.7676 29.3633 13.9707 29.8828 13.9707C30.2734 13.9707 30.5977 13.8633 30.8555 13.6484C31.1133 13.4336 31.2715 13.1387 31.3301 12.7637H32.3672L32.3789 12.7988C32.3594 13.1621 32.252 13.502 32.0566 13.8184C31.8613 14.1348 31.582 14.3906 31.2188 14.5859C30.8594 14.7773 30.416 14.873 29.8887 14.873ZM33.2227 14.75V14.0117L34.1777 13.8477V6.51758L33.2227 6.35352V5.60938H35.332V13.8477L36.2871 14.0117V14.75H33.2227ZM39.9023 14.873C39.2148 14.873 38.6777 14.6523 38.291 14.2109C37.9043 13.7695 37.7109 13.082 37.7109 12.1484V9.31836L36.9844 9.1543V8.41016H38.8652V12.1602C38.8652 12.8359 38.9648 13.3008 39.1641 13.5547C39.3633 13.8086 39.6738 13.9355 40.0957 13.9355C40.5059 13.9355 40.8438 13.8535 41.1094 13.6895C41.3789 13.5215 41.582 13.2852 41.7188 12.9805V9.31836L40.8691 9.1543V8.41016H42.873V13.8477L43.5996 14.0117V14.75H41.8359L41.7598 13.8125C41.5605 14.1523 41.3027 14.4141 40.9863 14.5977C40.6738 14.7812 40.3125 14.873 39.9023 14.873ZM46.9805 14.873C46.5547 14.873 46.1562 14.8301 45.7852 14.7441C45.4141 14.6582 45.0195 14.5254 44.6016 14.3457L44.5898 12.8398H45.4629L45.6797 13.748C46.0938 13.9199 46.5273 14.0059 46.9805 14.0059C47.4492 14.0059 47.7852 13.916 47.9883 13.7363C48.1914 13.5566 48.293 13.334 48.293 13.0684C48.293 12.8184 48.1895 12.6074 47.9824 12.4355C47.7793 12.2598 47.4082 12.1113 46.8691 11.9902C46.1035 11.8145 45.5391 11.5801 45.1758 11.2871C44.8164 10.9902 44.6367 10.5957 44.6367 10.1035C44.6367 9.75977 44.7363 9.45312 44.9355 9.18359C45.1348 8.91016 45.4121 8.69336 45.7676 8.5332C46.123 8.37305 46.5371 8.29297 47.0098 8.29297C47.4902 8.29297 47.9004 8.34766 48.2402 8.45703C48.584 8.56641 48.8828 8.71289 49.1367 8.89648L49.1953 10.3438H48.3281L48.1406 9.5C48.0039 9.39844 47.8418 9.32031 47.6543 9.26562C47.4668 9.21094 47.252 9.18359 47.0098 9.18359C46.6504 9.18359 46.3574 9.26758 46.1309 9.43555C45.9082 9.60352 45.7969 9.81445 45.7969 10.0684C45.7969 10.2168 45.8281 10.3457 45.8906 10.4551C45.957 10.5645 46.082 10.6641 46.2656 10.7539C46.4492 10.8398 46.7188 10.9258 47.0742 11.0117C47.957 11.2188 48.5723 11.4824 48.9199 11.8027C49.2715 12.123 49.4473 12.5176 49.4473 12.9863C49.4473 13.5215 49.248 13.9707 48.8496 14.334C48.4551 14.6934 47.832 14.873 46.9805 14.873ZM50.3613 14.75V14.0117L51.3164 13.8477V9.31836L50.3613 9.1543V8.41016H52.4707V13.8477L53.4258 14.0117V14.75H50.3613ZM51.2578 6.8457V5.60938H52.4707V6.8457H51.2578ZM56.8535 14.75L54.5977 9.24219L53.9414 9.1543V8.41016H56.6016V9.1543L55.7754 9.27148L57.1816 12.8809L57.3457 13.3906H57.3809L57.5684 12.8809L58.875 9.27148L58.0254 9.1543V8.41016H60.6797V9.1543L60.0117 9.24219L57.8672 14.75H56.8535ZM64.0254 14.873C63.4395 14.873 62.9297 14.7402 62.4961 14.4746C62.0625 14.2051 61.7266 13.832 61.4883 13.3555C61.2539 12.8789 61.1367 12.3281 61.1367 11.7031V11.4453C61.1367 10.8438 61.2598 10.3066 61.5059 9.83398C61.7559 9.35742 62.0859 8.98242 62.4961 8.70898C62.9102 8.43164 63.3613 8.29297 63.8496 8.29297C64.7012 8.29297 65.3457 8.55078 65.7832 9.06641C66.2246 9.58203 66.4453 10.2695 66.4453 11.1289V11.8496H62.332L62.3145 11.8789C62.3262 12.4883 62.4805 12.9902 62.7773 13.3848C63.0742 13.7754 63.4902 13.9707 64.0254 13.9707C64.416 13.9707 64.7578 13.916 65.0508 13.8066C65.3477 13.6934 65.6035 13.5391 65.8184 13.3438L66.2695 14.0938C66.043 14.3125 65.7422 14.498 65.3672 14.6504C64.9961 14.7988 64.5488 14.873 64.0254 14.873ZM62.3672 10.9473H65.291V10.7949C65.291 10.3418 65.1699 9.96289 64.9277 9.6582C64.6855 9.35352 64.3262 9.20117 63.8496 9.20117C63.4629 9.20117 63.1328 9.36523 62.8594 9.69336C62.5859 10.0176 62.418 10.4258 62.3555 10.918L62.3672 10.9473ZM72.5742 14.8496C72.1055 14.8496 71.7324 14.7129 71.4551 14.4395C71.1816 14.1621 71.0449 13.7207 71.0449 13.1152V9.26562H70.043V8.41016H71.0449V6.88086H72.1992V8.41016H73.5762V9.26562H72.1992V13.1152C72.1992 13.4199 72.2598 13.6445 72.3809 13.7891C72.502 13.9336 72.6641 14.0059 72.8672 14.0059C73.0039 14.0059 73.1562 13.9941 73.3242 13.9707C73.4922 13.9434 73.623 13.9199 73.7168 13.9004L73.875 14.6562C73.707 14.707 73.5 14.752 73.2539 14.791C73.0117 14.8301 72.7852 14.8496 72.5742 14.8496ZM77.3613 14.873C76.7754 14.873 76.2695 14.7363 75.8438 14.4629C75.4219 14.1855 75.0957 13.8047 74.8652 13.3203C74.6348 12.832 74.5195 12.2754 74.5195 11.6504V11.5215C74.5195 10.8965 74.6348 10.3418 74.8652 9.85742C75.0957 9.36914 75.4219 8.98633 75.8438 8.70898C76.2695 8.43164 76.7715 8.29297 77.3496 8.29297C77.9355 8.29297 78.4395 8.43164 78.8613 8.70898C79.2871 8.98633 79.6152 9.36719 79.8457 9.85156C80.0762 10.3359 80.1914 10.8926 80.1914 11.5215V11.6504C80.1914 12.2793 80.0762 12.8379 79.8457 13.3262C79.6152 13.8105 79.2891 14.1895 78.8672 14.4629C78.4453 14.7363 77.9434 14.873 77.3613 14.873ZM77.3613 13.9707C77.9082 13.9707 78.3242 13.752 78.6094 13.3145C78.8945 12.877 79.0371 12.3223 79.0371 11.6504V11.5215C79.0371 11.0762 78.9727 10.6797 78.8438 10.332C78.7188 9.98047 78.5312 9.70508 78.2812 9.50586C78.0312 9.30273 77.7207 9.20117 77.3496 9.20117C76.9824 9.20117 76.6738 9.30273 76.4238 9.50586C76.1738 9.70508 75.9863 9.98047 75.8613 10.332C75.7363 10.6797 75.6738 11.0762 75.6738 11.5215V11.6504C75.6738 12.3223 75.8145 12.877 76.0957 13.3145C76.3809 13.752 76.8027 13.9707 77.3613 13.9707ZM84.1113 14.75V14.0117L85.0664 13.8477V7.12695L84.1113 6.96289V6.22461H87.9141C88.8438 6.22461 89.5566 6.43164 90.0527 6.8457C90.5488 7.25586 90.7969 7.83984 90.7969 8.59766C90.7969 9.18359 90.6504 9.6582 90.3574 10.0215C90.0645 10.3848 89.6562 10.6348 89.1328 10.7715L90.5742 13.8887L91.166 13.9941V14.75H89.7422L88.0312 10.9062L86.2207 10.9414V13.8477L87.1758 14.0117V14.75H84.1113ZM86.2207 10.0332H87.7969C88.4414 10.0332 88.9102 9.91016 89.2031 9.66406C89.4961 9.41797 89.6426 9.05859 89.6426 8.58594C89.6426 8.13672 89.502 7.78125 89.2207 7.51953C88.9395 7.25781 88.5039 7.12695 87.9141 7.12695H86.2207V10.0332ZM95.0801 14.873C94.4941 14.873 93.9844 14.7402 93.5508 14.4746C93.1172 14.2051 92.7812 13.832 92.543 13.3555C92.3086 12.8789 92.1914 12.3281 92.1914 11.7031V11.4453C92.1914 10.8438 92.3145 10.3066 92.5605 9.83398C92.8105 9.35742 93.1406 8.98242 93.5508 8.70898C93.9648 8.43164 94.416 8.29297 94.9043 8.29297C95.7559 8.29297 96.4004 8.55078 96.8379 9.06641C97.2793 9.58203 97.5 10.2695 97.5 11.1289V11.8496H93.3867L93.3691 11.8789C93.3809 12.4883 93.5352 12.9902 93.832 13.3848C94.1289 13.7754 94.5449 13.9707 95.0801 13.9707C95.4707 13.9707 95.8125 13.916 96.1055 13.8066C96.4023 13.6934 96.6582 13.5391 96.873 13.3438L97.3242 14.0938C97.0977 14.3125 96.7969 14.498 96.4219 14.6504C96.0508 14.7988 95.6035 14.873 95.0801 14.873ZM93.4219 10.9473H96.3457V10.7949C96.3457 10.3418 96.2246 9.96289 95.9824 9.6582C95.7402 9.35352 95.3809 9.20117 94.9043 9.20117C94.5176 9.20117 94.1875 9.36523 93.9141 9.69336C93.6406 10.0176 93.4727 10.4258 93.4102 10.918L93.4219 10.9473ZM98.4023 14.75V14.0117L99.3574 13.8477V9.31836L98.4023 9.1543V8.41016H100.389L100.471 9.35352C100.682 9.01758 100.945 8.75781 101.262 8.57422C101.582 8.38672 101.945 8.29297 102.352 8.29297C103.035 8.29297 103.564 8.49414 103.939 8.89648C104.314 9.29492 104.502 9.91211 104.502 10.748V13.8477L105.457 14.0117V14.75H102.393V14.0117L103.348 13.8477V10.7715C103.348 10.2129 103.236 9.81641 103.014 9.58203C102.795 9.34766 102.459 9.23047 102.006 9.23047C101.674 9.23047 101.379 9.31055 101.121 9.4707C100.867 9.63086 100.664 9.84961 100.512 10.127V13.8477L101.467 14.0117V14.75H98.4023ZM108.281 14.8496C107.812 14.8496 107.439 14.7129 107.162 14.4395C106.889 14.1621 106.752 13.7207 106.752 13.1152V9.26562H105.75V8.41016H106.752V6.88086H107.906V8.41016H109.283V9.26562H107.906V13.1152C107.906 13.4199 107.967 13.6445 108.088 13.7891C108.209 13.9336 108.371 14.0059 108.574 14.0059C108.711 14.0059 108.863 13.9941 109.031 13.9707C109.199 13.9434 109.33 13.9199 109.424 13.9004L109.582 14.6562C109.414 14.707 109.207 14.752 108.961 14.791C108.719 14.8301 108.492 14.8496 108.281 14.8496ZM110.361 14.75V14.0117L111.316 13.8477V7.12695L110.361 6.96289V6.21875H114.041C114.932 6.21875 115.627 6.41211 116.127 6.79883C116.631 7.18164 116.883 7.75781 116.883 8.52734C116.883 8.90625 116.762 9.24609 116.52 9.54688C116.281 9.84375 115.965 10.0645 115.57 10.209C116.082 10.3184 116.486 10.5703 116.783 10.9648C117.08 11.3594 117.229 11.8184 117.229 12.3418C117.229 13.123 116.975 13.7207 116.467 14.1348C115.959 14.5449 115.271 14.75 114.404 14.75H110.361ZM112.471 9.8457H114.34C114.754 9.8457 115.088 9.72656 115.342 9.48828C115.6 9.24609 115.729 8.91797 115.729 8.50391C115.729 8.04297 115.584 7.69922 115.295 7.47266C115.006 7.24219 114.588 7.12695 114.041 7.12695H112.471V9.8457ZM112.471 13.8477H114.404C114.932 13.8477 115.34 13.7188 115.629 13.4609C115.922 13.1992 116.068 12.8301 116.068 12.3535C116.068 11.8535 115.945 11.4609 115.699 11.1758C115.457 10.8906 115.084 10.748 114.58 10.748H112.471V13.8477ZM120.117 14.873C119.457 14.873 118.955 14.7129 118.611 14.3926C118.268 14.0684 118.096 13.6133 118.096 13.0273C118.096 12.4258 118.342 11.9434 118.834 11.5801C119.326 11.2129 120.01 11.0293 120.885 11.0293H122.016V10.4082C122.016 10.0254 121.898 9.72852 121.664 9.51758C121.434 9.30664 121.107 9.20117 120.686 9.20117C120.42 9.20117 120.189 9.23438 119.994 9.30078C119.799 9.36328 119.621 9.45117 119.461 9.56445L119.338 10.4492H118.447V8.99609C119.021 8.52734 119.773 8.29297 120.703 8.29297C121.473 8.29297 122.076 8.47656 122.514 8.84375C122.951 9.21094 123.17 9.73633 123.17 10.4199V13.4727C123.17 13.5547 123.17 13.6348 123.17 13.7129C123.174 13.791 123.18 13.8691 123.188 13.9473L123.803 14.0117V14.75H122.145C122.078 14.4297 122.037 14.1387 122.021 13.877C121.799 14.1621 121.52 14.4004 121.184 14.5918C120.852 14.7793 120.496 14.873 120.117 14.873ZM120.287 13.9062C120.67 13.9062 121.02 13.8145 121.336 13.6309C121.652 13.4473 121.879 13.2266 122.016 12.9688V11.8203H120.844C120.312 11.8203 119.914 11.9473 119.648 12.2012C119.383 12.4551 119.25 12.7383 119.25 13.0508C119.25 13.6211 119.596 13.9062 120.287 13.9062ZM127.266 14.873C126.84 14.873 126.441 14.8301 126.07 14.7441C125.699 14.6582 125.305 14.5254 124.887 14.3457L124.875 12.8398H125.748L125.965 13.748C126.379 13.9199 126.812 14.0059 127.266 14.0059C127.734 14.0059 128.07 13.916 128.273 13.7363C128.477 13.5566 128.578 13.334 128.578 13.0684C128.578 12.8184 128.475 12.6074 128.268 12.4355C128.064 12.2598 127.693 12.1113 127.154 11.9902C126.389 11.8145 125.824 11.5801 125.461 11.2871C125.102 10.9902 124.922 10.5957 124.922 10.1035C124.922 9.75977 125.021 9.45312 125.221 9.18359C125.42 8.91016 125.697 8.69336 126.053 8.5332C126.408 8.37305 126.822 8.29297 127.295 8.29297C127.775 8.29297 128.186 8.34766 128.525 8.45703C128.869 8.56641 129.168 8.71289 129.422 8.89648L129.48 10.3438H128.613L128.426 9.5C128.289 9.39844 128.127 9.32031 127.939 9.26562C127.752 9.21094 127.537 9.18359 127.295 9.18359C126.936 9.18359 126.643 9.26758 126.416 9.43555C126.193 9.60352 126.082 9.81445 126.082 10.0684C126.082 10.2168 126.113 10.3457 126.176 10.4551C126.242 10.5645 126.367 10.6641 126.551 10.7539C126.734 10.8398 127.004 10.9258 127.359 11.0117C128.242 11.2188 128.857 11.4824 129.205 11.8027C129.557 12.123 129.732 12.5176 129.732 12.9863C129.732 13.5215 129.533 13.9707 129.135 14.334C128.74 14.6934 128.117 14.873 127.266 14.873ZM133.576 14.873C132.99 14.873 132.48 14.7402 132.047 14.4746C131.613 14.2051 131.277 13.832 131.039 13.3555C130.805 12.8789 130.688 12.3281 130.688 11.7031V11.4453C130.688 10.8438 130.811 10.3066 131.057 9.83398C131.307 9.35742 131.637 8.98242 132.047 8.70898C132.461 8.43164 132.912 8.29297 133.4 8.29297C134.252 8.29297 134.896 8.55078 135.334 9.06641C135.775 9.58203 135.996 10.2695 135.996 11.1289V11.8496H131.883L131.865 11.8789C131.877 12.4883 132.031 12.9902 132.328 13.3848C132.625 13.7754 133.041 13.9707 133.576 13.9707C133.967 13.9707 134.309 13.916 134.602 13.8066C134.898 13.6934 135.154 13.5391 135.369 13.3438L135.82 14.0938C135.594 14.3125 135.293 14.498 134.918 14.6504C134.547 14.7988 134.1 14.873 133.576 14.873ZM131.918 10.9473H134.842V10.7949C134.842 10.3418 134.721 9.96289 134.479 9.6582C134.236 9.35352 133.877 9.20117 133.4 9.20117C133.014 9.20117 132.684 9.36523 132.41 9.69336C132.137 10.0176 131.969 10.4258 131.906 10.918L131.918 10.9473Z" fill="#3D0085"/>
</svg>
