<svg width="60" height="27" viewBox="0 0 60 27" fill="none" xmlns="http://www.w3.org/2000/svg">
<path d="M58.8171 26.2362L58.6989 25.9473C58.7679 25.8905 58.7764 25.8535 58.7764 25.7918C58.7757 25.6846 58.6955 25.6187 58.5667 25.6187H58.404V26.2368H58.495V25.9591H58.6061L58.7213 26.2362H58.8171ZM58.495 25.8886V25.6941H58.5558C58.6432 25.6941 58.6809 25.7305 58.6812 25.7882C58.6812 25.839 58.6534 25.8886 58.5558 25.8886H58.495Z" fill="#989898"/>
<path d="M58.5925 26.4812C58.2711 26.4812 58.0098 26.2293 58.0098 25.9194C58.0098 25.6105 58.2711 25.3593 58.5925 25.3593C58.9122 25.3593 59.1742 25.6105 59.1742 25.9194C59.1742 26.2293 58.9122 26.4812 58.5925 26.4812ZM58.5925 25.4301C58.3122 25.4301 58.0839 25.6508 58.0839 25.9194C58.0839 26.1909 58.3122 26.4087 58.5925 26.4087C58.8711 26.4087 59.0984 26.1909 59.0984 25.9194C59.0984 25.6508 58.8711 25.4301 58.5925 25.4301Z" fill="#989898"/>
<path d="M27.9469 20.6929L26.3836 25.3763L24.5005 20.7217H24.0174L26.2813 26.4326H26.4937L28.112 21.3983L29.7579 26.4326H29.9706L32.2236 20.7217H31.7293L29.8731 25.3723L28.2897 20.6929H27.9469Z" fill="#989898"/>
<path d="M34.1766 20.7168V26.386H37.0505V26.0207H34.6319V20.7168H34.1766Z" fill="#989898"/>
<path d="M37.8883 20.7168V26.386H40.7615V26.0207H38.3416V20.7168H37.8883Z" fill="#989898"/>
<path d="M41.5627 26.3861H42.018V20.7175H41.5627V26.3861Z" fill="#989898"/>
<path d="M32.8821 26.3861H33.3401V20.7175H32.8821V26.3861Z" fill="#989898"/>
<path d="M45.0906 20.6874L42.6618 26.3861H43.0852L43.9173 24.4279H46.485L47.3151 26.3861H47.7408L45.3128 20.6874H45.0906ZM45.1969 21.4003L46.3304 24.0646H44.0726L45.1969 21.4003Z" fill="#989898"/>
<path d="M53.2961 20.728L51.0618 23.3595L48.8274 20.728H48.3711V26.3861H48.8274V21.3688H48.8444L51.0618 24.0124L53.2774 21.3688H53.2961V26.3861H53.7521V20.728H53.2961Z" fill="#989898"/>
<path d="M57.5205 21.6463C57.1495 21.1835 56.6218 21.0737 56.2172 21.0737C55.5135 21.0737 54.9807 21.539 54.9807 22.1546C54.9807 23.6628 57.7727 22.9423 57.7727 24.9247C57.7727 25.7951 57.0258 26.4746 56.0707 26.4746C55.5899 26.4746 55.0745 26.348 54.5665 25.9768V25.4629C55.1384 25.986 55.5899 26.0689 56.0449 26.0689C56.7421 26.0689 57.281 25.579 57.281 24.9408C57.281 23.3316 54.4904 24.0357 54.4904 22.171C54.4904 21.3344 55.2447 20.671 56.1754 20.6683C56.6477 20.6683 57.2511 20.8549 57.5205 21.1658V21.6463Z" fill="#989898"/>
<path d="M9.33502 20.7346V26.4018H12.3536V25.6695H10.1787V20.7346H9.33502Z" fill="#989898"/>
<path d="M12.8942 20.7346V26.4018H15.9127V25.6695H13.7382V20.7346H12.8942Z" fill="#989898"/>
<path d="M16.4567 20.7346V26.4018H19.8667V25.6695H17.3004V23.9095H19.7039V23.1772H17.3004V21.4656H19.7889V20.7346H16.4567Z" fill="#989898"/>
<path d="M24.1995 26.4005L23.1122 23.753C23.7588 23.2375 23.8319 22.8876 23.8247 22.3206C23.8155 21.34 23.0857 20.7346 21.8968 20.7346H20.4161V26.4025H21.2601V23.8681C21.2601 23.8681 21.957 23.8688 22.2655 23.8668L23.3269 26.4005H24.1995ZM21.2601 23.2116V21.4328H21.802C22.6202 21.4328 22.9474 21.7575 22.9563 22.2884C22.9651 22.7633 22.7062 23.2116 21.802 23.2116H21.2601Z" fill="#989898"/>
<path d="M5.38071 20.7346V26.3927H8.78389V25.6613H6.22335V23.9032H8.62114V23.1735H6.22335V21.465H8.70711V20.7346H5.38071Z" fill="#989898"/>
<path d="M3.87857 20.7346L3.58059 21.0458L1.4186 23.3165V20.7346H0.576294V26.3812H1.4186V24.4427L2.3557 23.4516L3.58262 26.3825H4.45211V26.3818L4.14529 25.6531L2.95608 22.8154L4.23601 21.463L4.92542 20.7346H3.87857Z" fill="#989898"/>
<path d="M0.573227 0.7323V17.876H3.05155V13.8547L4.869 12.1113L7.39659 17.876H9.90753L6.56958 10.2273L8.91301 7.72146L13.4575 17.876H14.4116L17.8212 10.022L21.2859 17.876H22.2264L27.4195 6.31359H24.8767L21.7507 13.329L18.7189 6.31359H16.965L13.9077 13.329L10.7644 6.31359H7.46828L3.05155 10.5684V0.7323H0.573227Z" fill="#989898"/>
</svg>
