<svg width="93" height="17" viewBox="0 0 93 17" fill="none" xmlns="http://www.w3.org/2000/svg">
<g clip-path="url(#clip0)">
<path d="M16.9555 6.52051C16.8436 6.17628 16.5383 5.93257 16.1785 5.90001L11.2711 5.45449L9.33167 0.913888C9.18848 0.580295 8.86267 0.36499 8.50002 0.36499C8.13738 0.36499 7.81144 0.580295 7.66915 0.913888L5.72972 5.45449L0.821542 5.90001C0.461749 5.93322 0.157079 6.17693 0.044498 6.52051C-0.0674347 6.86474 0.0359377 7.2423 0.308052 7.48095L4.01766 10.7337L2.92388 15.5511C2.84385 15.9053 2.98134 16.2716 3.27524 16.4841C3.43322 16.5989 3.61882 16.6562 3.80507 16.6562C3.96513 16.6562 4.12531 16.6136 4.26837 16.528L8.50002 13.9978L12.7309 16.528C13.0413 16.7135 13.4315 16.6965 13.7248 16.4841C14.0187 16.2716 14.1562 15.9053 14.0762 15.5511L12.9824 10.7337L16.692 7.48095C16.964 7.2423 17.0675 6.86551 16.9555 6.52051Z" fill="#6200D6"/>
</g>
<g clip-path="url(#clip1)">
<path d="M35.9555 6.52051C35.8436 6.17628 35.5383 5.93257 35.1785 5.90001L30.2711 5.45449L28.3317 0.913888C28.1885 0.580295 27.8627 0.36499 27.5 0.36499C27.1374 0.36499 26.8114 0.580295 26.6692 0.913888L24.7297 5.45449L19.8215 5.90001C19.4617 5.93322 19.1571 6.17693 19.0445 6.52051C18.9326 6.86474 19.0359 7.2423 19.3081 7.48095L23.0177 10.7337L21.9239 15.5511C21.8439 15.9053 21.9813 16.2716 22.2752 16.4841C22.4332 16.5989 22.6188 16.6562 22.8051 16.6562C22.9651 16.6562 23.1253 16.6136 23.2684 16.528L27.5 13.9978L31.7309 16.528C32.0413 16.7135 32.4315 16.6965 32.7248 16.4841C33.0187 16.2716 33.1562 15.9053 33.0762 15.5511L31.9824 10.7337L35.692 7.48095C35.964 7.2423 36.0675 6.86551 35.9555 6.52051Z" fill="#6200D6"/>
</g>
<g clip-path="url(#clip2)">
<path d="M54.9555 6.52051C54.8436 6.17628 54.5383 5.93257 54.1785 5.90001L49.2711 5.45449L47.3317 0.913888C47.1885 0.580295 46.8627 0.36499 46.5 0.36499C46.1374 0.36499 45.8114 0.580295 45.6692 0.913888L43.7297 5.45449L38.8215 5.90001C38.4617 5.93322 38.1571 6.17693 38.0445 6.52051C37.9326 6.86474 38.0359 7.2423 38.3081 7.48095L42.0177 10.7337L40.9239 15.5511C40.8439 15.9053 40.9813 16.2716 41.2752 16.4841C41.4332 16.5989 41.6188 16.6562 41.8051 16.6562C41.9651 16.6562 42.1253 16.6136 42.2684 16.528L46.5 13.9978L50.7309 16.528C51.0413 16.7135 51.4315 16.6965 51.7248 16.4841C52.0187 16.2716 52.1562 15.9053 52.0762 15.5511L50.9824 10.7337L54.692 7.48095C54.964 7.2423 55.0675 6.86551 54.9555 6.52051Z" fill="#6200D6"/>
</g>
<g clip-path="url(#clip3)">
<path d="M73.9555 6.52051C73.8436 6.17628 73.5383 5.93257 73.1785 5.90001L68.2711 5.45449L66.3317 0.913888C66.1885 0.580295 65.8627 0.36499 65.5 0.36499C65.1374 0.36499 64.8114 0.580295 64.6692 0.913888L62.7297 5.45449L57.8215 5.90001C57.4617 5.93322 57.1571 6.17693 57.0445 6.52051C56.9326 6.86474 57.0359 7.2423 57.3081 7.48095L61.0177 10.7337L59.9239 15.5511C59.8439 15.9053 59.9813 16.2716 60.2752 16.4841C60.4332 16.5989 60.6188 16.6562 60.8051 16.6562C60.9651 16.6562 61.1253 16.6136 61.2684 16.528L65.5 13.9978L69.7309 16.528C70.0413 16.7135 70.4315 16.6965 70.7248 16.4841C71.0187 16.2716 71.1562 15.9053 71.0762 15.5511L69.9824 10.7337L73.692 7.48095C73.964 7.2423 74.0675 6.86551 73.9555 6.52051Z" fill="#6200D6"/>
</g>
<g clip-path="url(#clip4)">
<path d="M92.9555 6.52051C92.8436 6.17628 92.5383 5.93257 92.1785 5.90001L87.2711 5.45449L85.3317 0.913888C85.1885 0.580295 84.8627 0.36499 84.5 0.36499C84.1374 0.36499 83.8114 0.580295 83.6692 0.913888L81.7297 5.45449L76.8215 5.90001C76.4617 5.93322 76.1571 6.17693 76.0445 6.52051C75.9326 6.86474 76.0359 7.2423 76.3081 7.48095L80.0177 10.7337L78.9239 15.5511C78.8439 15.9053 78.9813 16.2716 79.2752 16.4841C79.4332 16.5989 79.6188 16.6562 79.8051 16.6562C79.9651 16.6562 80.1253 16.6136 80.2684 16.528L84.5 13.9978L88.7309 16.528C89.0413 16.7135 89.4315 16.6965 89.7248 16.4841C90.0187 16.2716 90.1562 15.9053 90.0762 15.5511L88.9824 10.7337L92.692 7.48095C92.964 7.2423 93.0675 6.86551 92.9555 6.52051Z" fill="#6200D6"/>
</g>
<defs>
<clipPath id="clip0">
<rect width="17" height="17" fill="white"/>
</clipPath>
<clipPath id="clip1">
<rect width="17" height="17" fill="white" transform="translate(19)"/>
</clipPath>
<clipPath id="clip2">
<rect width="17" height="17" fill="white" transform="translate(38)"/>
</clipPath>
<clipPath id="clip3">
<rect width="17" height="17" fill="white" transform="translate(57)"/>
</clipPath>
<clipPath id="clip4">
<rect width="17" height="17" fill="white" transform="translate(76)"/>
</clipPath>
</defs>
</svg>
