<svg width="81" height="78" viewBox="0 0 81 78" fill="none" xmlns="http://www.w3.org/2000/svg">
<path d="M76.1423 45.7964C78.3978 43.8905 80.9552 41.7307 80.9552 38.7525C80.9552 35.7743 78.3968 33.6157 76.1434 31.7098C74.714 30.5022 73.2367 29.2582 72.8997 28.2177C72.5341 27.0909 73.0064 25.1456 73.4594 23.2663C74.1725 20.319 74.9102 17.2723 73.225 14.9519C71.5194 12.6142 68.2363 12.3658 65.3368 12.1474C63.4181 12.0025 61.445 11.8532 60.5102 11.1731C59.5988 10.5089 58.8548 8.69143 58.1373 6.93276C57.0288 4.22104 55.7731 1.14783 52.9888 0.243995C50.3048 -0.628014 47.659 0.99879 45.1071 2.57408C43.4356 3.60177 41.7067 4.66654 40.4776 4.66654C39.2484 4.66654 37.5195 3.60062 35.8472 2.57408C33.2888 0.998561 30.6497 -0.623893 27.9666 0.243995C25.1811 1.14783 23.9266 4.22012 22.819 6.93184C22.0995 8.69074 21.3575 10.5092 20.4452 11.1733C19.5104 11.8535 17.532 12.0027 15.6186 12.1476C12.7191 12.3608 9.43597 12.6144 7.73041 14.9532C6.04523 17.2684 6.78286 20.3151 7.49599 23.2677C7.95019 25.147 8.42134 27.0922 8.0555 28.219C7.71874 29.2552 6.24349 30.5045 4.81288 31.7112C2.55605 33.6166 0 35.7761 0 38.7534C0 41.7307 2.55834 43.8914 4.81288 45.7973C6.2412 47.004 7.71874 48.2489 8.0555 49.2883C8.42111 50.416 7.94882 52.3604 7.49599 54.2397C6.78286 57.187 6.04523 60.2336 7.73041 62.5541C9.43597 64.8929 12.7191 65.1413 15.6186 65.3597C17.5373 65.5046 19.5114 65.655 20.4463 66.334C21.3577 66.9982 22.1006 68.8157 22.8192 70.5755C23.9277 73.2872 25.1825 76.3593 27.9677 77.2642C28.4686 77.427 28.992 77.5094 29.5187 77.5083C31.6678 77.5083 33.7826 76.2036 35.8483 74.9351C37.5209 73.9053 39.2498 72.8406 40.4787 72.8406C41.7076 72.8406 43.4368 73.9065 45.1091 74.9351C47.6675 76.5074 50.3089 78.133 52.9886 77.2642C55.774 76.3593 57.0297 73.2872 58.1371 70.5755C58.8555 68.8166 59.5986 66.9982 60.5109 66.334C61.4447 65.655 63.4232 65.5057 65.3355 65.3608C68.2358 65.1477 71.5233 64.894 73.2236 62.5552C74.9088 60.2389 74.1712 57.1934 73.4592 54.2408C73.0041 52.3606 72.5338 50.4162 72.8994 49.2894C73.2364 48.2521 74.714 47.0028 76.1423 45.7964ZM69.3565 48.1361C68.6646 50.2679 69.2617 52.7324 69.8384 55.1181C70.3276 57.1435 70.883 59.433 70.2124 60.354C69.5259 61.2963 67.1532 61.4754 65.0596 61.6331C62.6272 61.8174 60.1114 62.0063 58.3207 63.3098C56.5501 64.5976 55.6035 66.916 54.688 69.1566C53.8874 71.1169 52.9824 73.3383 51.8407 73.7094C50.8014 74.042 48.8176 72.8268 47.0695 71.7501C44.9461 70.4487 42.763 69.1002 40.4776 69.1002C38.1921 69.1002 36.0006 70.4454 33.8912 71.7481C32.143 72.8248 30.1602 74.0388 29.1188 73.7073C27.9803 73.3364 27.0733 71.1149 26.2715 69.1545C25.357 66.916 24.4094 64.5955 22.6397 63.3078C20.849 62.0042 18.3321 61.8153 15.8985 61.6299C13.8061 61.471 11.4332 61.2931 10.7468 60.3508C10.0774 59.4287 10.6328 57.1371 11.1221 55.1137C11.6988 52.728 12.2947 50.2626 11.604 48.1329C10.9389 46.0853 9.04564 44.4885 7.22081 42.9438C5.58553 41.5581 3.73094 39.9954 3.73094 38.7493C3.73094 37.5032 5.58462 35.9373 7.21989 34.5559C9.04793 33.0113 10.9389 31.4145 11.6042 29.3658C12.296 27.2339 11.699 24.7704 11.1223 22.3858C10.6331 20.3604 10.0777 18.0697 10.7471 17.1487C11.4337 16.2064 13.8063 16.0274 15.8988 15.8697C18.3323 15.6851 20.849 15.4965 22.64 14.1918C24.4094 12.904 25.3572 10.5868 26.2718 8.3462C27.0733 6.38584 27.9773 4.16334 29.1199 3.79339C29.2488 3.75378 29.3828 3.73432 29.5176 3.73592C30.6176 3.73592 32.3456 4.80184 33.888 5.7526C36.0017 7.05409 38.188 8.39931 40.4735 8.39931C42.7589 8.39931 44.9461 7.06142 47.0631 5.75466C48.8112 4.67707 50.7865 3.46075 51.8364 3.79545C52.9737 4.16541 53.8819 6.3879 54.6836 8.34803C55.5994 10.5865 56.5458 12.9061 58.3154 14.1936C60.1062 15.4983 62.6231 15.686 65.0566 15.8715C67.1491 16.0304 69.522 16.2094 70.2083 17.1505C70.8777 18.0727 70.3235 20.3643 69.8331 22.3885C69.2564 24.7731 68.6605 27.2387 69.3512 29.3685C70.0163 31.4172 71.9095 33.0141 73.7355 34.5587C75.3708 35.9444 77.2245 37.506 77.2245 38.7521C77.2245 39.9981 75.3708 41.5641 73.7346 42.9466C71.9061 44.4914 70.0163 46.0882 69.3565 48.1361Z" fill="#5806B9"/>
<path d="M49.0265 27.0247L37.1006 38.9506L31.9286 33.7785C29.5337 31.3848 25.6519 31.3857 23.2581 33.7806C20.8644 36.1755 20.8653 40.0573 23.2602 42.451L32.7665 51.9573C35.1604 54.3505 39.0408 54.3505 41.4348 51.9573L57.6948 35.6917C60.1062 33.3161 60.1353 29.4352 57.7594 27.0238C55.3835 24.6125 51.5029 24.5834 49.0915 26.9593C49.0698 26.9813 49.048 27.003 49.0265 27.0247ZM55.0566 33.054L38.7966 49.314C37.8483 50.2222 36.3529 50.2222 35.4047 49.314L25.8975 39.8068C24.9614 38.8702 24.9619 37.352 25.8987 36.4161C26.8352 35.48 28.3535 35.4804 29.2894 36.4172L35.779 42.9077C36.5075 43.6355 37.6878 43.6355 38.4161 42.9077L51.6618 29.66C52.5818 28.7072 54.1001 28.6804 55.0532 29.6005C56.0062 30.5206 56.0328 32.0389 55.1127 32.9919C55.0935 33.0118 55.0738 33.0315 55.0536 33.051L55.0566 33.054Z" fill="#5806B9"/>
</svg>
